<svg width="37" height="36" viewBox="0 0 37 36" fill="none" xmlns="http://www.w3.org/2000/svg">
<path d="M18.3703 0.147656L18.1875 0.288281V1.90547C18.1875 3.42422 18.1945 3.52266 18.3281 3.65625C18.4195 3.74766 18.5602 3.79688 18.75 3.79688C18.9398 3.79688 19.0805 3.74766 19.1719 3.65625C19.3055 3.52266 19.3125 3.42422 19.3125 1.90547V0.288281L19.1297 0.147656C19.0242 0.0632813 18.8555 0 18.75 0C18.6445 0 18.4758 0.0632813 18.3703 0.147656Z" fill="white"/>
<path d="M12.6046 1.62425C12.2671 1.89143 12.3375 2.13753 13.132 3.50862C13.5187 4.18362 13.8914 4.77425 13.9546 4.8305C14.1375 4.96409 14.489 4.943 14.7 4.77425C15.0375 4.50706 14.9671 4.26096 14.1726 2.88987C13.7859 2.21487 13.4132 1.62425 13.35 1.568C13.1671 1.4344 12.8156 1.4555 12.6046 1.62425Z" fill="white"/>
<path d="M24.1008 1.73677C23.8687 1.94067 22.5469 4.29614 22.5469 4.52114C22.5469 4.96411 23.1727 5.2313 23.5242 4.93599C23.707 4.7813 25.0781 2.3977 25.0781 2.22895C25.0781 2.06724 24.9445 1.82114 24.8039 1.70864C24.6422 1.58208 24.2695 1.59614 24.1008 1.73677Z" fill="white"/>
<path d="M17.3437 5.42109C14.7984 5.9625 12.8297 7.85391 12.1687 10.3781C11.9367 11.25 11.9086 12.6703 12.0984 13.4578C12.1617 13.725 12.2039 13.95 12.1969 13.9641C12.1828 13.9711 10.8609 14.4914 9.26483 15.1102C7.66171 15.7289 6.30468 16.2773 6.26249 16.3266C6.21327 16.3758 5.53827 17.5148 4.76483 18.8578C3.25311 21.4734 3.18983 21.6211 3.50624 21.9164C3.59765 22.0008 4.17421 22.2609 4.79296 22.5C5.41171 22.7391 5.96014 22.95 6.00936 22.9711C6.07264 22.9992 6.09374 23.8641 6.09374 26.9648C6.09374 30.6281 6.10077 30.9305 6.2203 31.0711C6.29765 31.1766 8.28046 31.9781 12.4781 33.6094C15.8531 34.9242 18.6797 36 18.757 36C19.0101 36 31.0828 31.268 31.2516 31.0992L31.4062 30.9445V26.9719V22.9992L31.7789 22.8656C33.2695 22.2961 33.8531 22.05 33.9937 21.9234C34.3101 21.6211 34.2469 21.4734 32.7422 18.8578C31.9617 17.5148 31.2867 16.3758 31.2445 16.3336C31.1953 16.2844 29.8453 15.7359 28.2422 15.1102C26.639 14.4844 25.3172 13.9711 25.3031 13.957C25.2961 13.95 25.3383 13.725 25.4016 13.4578C25.5914 12.6703 25.5633 11.25 25.3312 10.3711C24.832 8.44453 23.5242 6.84844 21.7383 5.97656C20.7961 5.5125 20.0719 5.33672 18.9258 5.30156C18.1875 5.28047 17.8781 5.30156 17.3437 5.42109ZM19.7484 6.56719C21.5695 6.91875 23.0672 8.09297 23.8406 9.7875C24.2062 10.582 24.3258 11.1656 24.3258 12.0938C24.3187 13.0852 24.1641 13.7391 23.707 14.6109C23.0109 15.9539 21.8719 16.9242 20.4023 17.4164C19.889 17.5922 19.7484 17.6063 18.75 17.6063C17.7516 17.6063 17.6109 17.5922 17.0976 17.4164C15.2273 16.7836 13.8211 15.307 13.3219 13.4438C13.132 12.7195 13.118 11.4891 13.2937 10.793C13.7578 8.99297 15.0867 7.48125 16.7531 6.84844C17.7305 6.47578 18.7711 6.38438 19.7484 6.56719ZM13.0828 15.8133C13.5328 16.5164 14.4961 17.4516 15.2203 17.8875C15.8531 18.2672 16.9219 18.6609 17.625 18.7664C18.2086 18.8648 19.2914 18.8648 19.875 18.7664C20.5781 18.6609 21.6469 18.2672 22.2797 17.8875C23.0039 17.4516 23.9672 16.5164 24.4172 15.8133C24.607 15.518 24.7969 15.2297 24.832 15.1664C24.8953 15.075 25.1906 15.1734 27.0328 15.9117C28.65 16.5516 29.1351 16.7766 29.0226 16.8117C28.9453 16.8469 26.6039 17.7539 23.8195 18.8367L18.757 20.8125L13.6734 18.8367C10.875 17.7469 8.53358 16.8328 8.46327 16.8117C8.37186 16.7766 9.00468 16.4953 10.4672 15.9117C12.3023 15.1805 12.6047 15.075 12.668 15.1664C12.7101 15.2297 12.893 15.518 13.0828 15.8133ZM12.5273 19.6875C15.4242 20.8125 17.8078 21.7477 17.8219 21.7617C17.843 21.7828 15.9094 25.2211 15.7547 25.4391C15.7406 25.4602 4.8914 21.2484 4.84921 21.2063C4.82811 21.1922 6.03749 19.0547 6.91639 17.5641C6.93046 17.5359 7.01483 17.543 7.09921 17.5711C7.18358 17.6063 9.62343 18.5555 12.5273 19.6875ZM31.6453 19.3992C32.2148 20.3766 32.6648 21.1922 32.6508 21.2063C32.5875 21.2766 21.8015 25.432 21.7594 25.4109C21.6469 25.3406 19.643 21.7688 19.6992 21.7477C19.7414 21.7336 22.1883 20.7773 25.1484 19.6242C28.1086 18.4711 30.5484 17.543 30.5695 17.5711C30.5976 17.5922 31.0828 18.4148 31.6453 19.3992ZM11.5781 25.1367C13.9617 26.0648 15.9234 26.7891 16.05 26.7891C16.3523 26.7891 16.4578 26.6555 17.3789 25.0523L18.1523 23.7023L18.1734 29.0883C18.1805 32.0555 18.1805 34.4813 18.1664 34.4953C18.1523 34.5094 12.9 32.4844 8.4703 30.7547L7.28905 30.2906V26.8875C7.28905 25.0172 7.29608 23.4844 7.31015 23.4844C7.32421 23.4844 9.24374 24.2297 11.5781 25.1367ZM30.2109 26.8875V30.2906L29.0367 30.7547C24.0656 32.6953 19.3547 34.5164 19.3336 34.4953C19.3195 34.4883 19.3195 32.0484 19.3266 29.0883L19.3476 23.7023L20.1211 25.0453C21.0492 26.6625 21.1406 26.7891 21.45 26.7891C21.5836 26.7891 23.482 26.0859 25.8937 25.1438C28.207 24.2367 30.1266 23.4984 30.1617 23.4914C30.1898 23.4844 30.2109 25.0172 30.2109 26.8875Z" fill="white"/>
<path d="M21.2461 8.45156C21.0141 8.51484 20.6625 8.82422 19.2211 10.2516C17.7305 11.7352 17.4703 11.9672 17.393 11.8828C17.3367 11.8266 17.1047 11.5383 16.8656 11.2359C16.3664 10.6172 16.0149 10.4062 15.4734 10.4062C14.3977 10.4133 13.6594 11.5242 14.1024 12.4805C14.1727 12.6352 14.693 13.3453 15.2625 14.0625C16.3875 15.4828 16.7039 15.75 17.2875 15.75C17.9836 15.75 17.9906 15.743 20.4938 13.2609C21.7875 11.9812 22.9266 10.793 23.025 10.6172C23.4328 9.93516 23.1797 8.97187 22.4977 8.59219C22.1531 8.40234 21.6399 8.34609 21.2461 8.45156ZM21.9281 9.68203C21.9984 9.74531 22.0547 9.82969 22.0547 9.87187C22.0547 9.99844 17.4633 14.5547 17.3297 14.5547C17.2594 14.5547 16.8305 14.0695 16.282 13.3734C15.7688 12.7266 15.3047 12.143 15.2484 12.0727C15.1641 11.9742 15.157 11.918 15.2274 11.7703C15.375 11.4469 15.5719 11.5734 16.268 12.4453C17.0555 13.4156 17.1469 13.5 17.4703 13.5C17.7024 13.5 17.85 13.3734 19.6922 11.5312C20.782 10.4484 21.6961 9.5625 21.7313 9.5625C21.7664 9.5625 21.8578 9.61172 21.9281 9.68203Z" fill="white"/>
<path d="M8.35072 5.74448C8.26634 5.81479 8.18197 5.98354 8.16087 6.12417C8.09759 6.48979 8.27337 6.64448 9.61634 7.41792C10.7906 8.08589 11.0577 8.18433 11.3601 8.01558C11.5851 7.89604 11.6695 7.57964 11.557 7.30542C11.4726 7.10151 11.2757 6.96089 10.1999 6.34214C8.87806 5.58979 8.639 5.51245 8.35072 5.74448Z" fill="white"/>
<path d="M28.3476 5.93438C28.0312 6.075 26.0484 7.23516 25.9078 7.36172C25.5351 7.69922 25.7953 8.36016 26.3086 8.36719C26.6179 8.36719 28.9945 6.98906 29.1351 6.72891C29.4023 6.21563 28.882 5.68828 28.3476 5.93438Z" fill="white"/>
<path d="M6.71953 11.5242C6.6 11.6508 6.51562 11.8055 6.51562 11.918C6.51562 12.0305 6.6 12.1852 6.71953 12.3117L6.92344 12.5156H8.44922H9.975L10.1789 12.3117C10.2984 12.1852 10.3828 12.0305 10.3828 11.918C10.3828 11.8055 10.2984 11.6508 10.1789 11.5242L9.975 11.3203H8.44922H6.92344L6.71953 11.5242Z" fill="white"/>
<path d="M27.0468 11.8055C26.7796 12.0727 26.7656 12.382 27.0116 12.6211L27.1804 12.7969H28.7554H30.3304L30.4851 12.6281C30.696 12.4031 30.7031 11.9953 30.4991 11.7844C30.3585 11.6437 30.2671 11.6367 28.8046 11.6156L27.2577 11.5945L27.0468 11.8055Z" fill="white"/>
</svg>
