<svg width="37" height="37" viewBox="0 0 37 37" fill="none" xmlns="http://www.w3.org/2000/svg">
<g clip-path="url(#clip0_2895_202744)">
<path d="M2.8867 0.598434C1.75467 0.957027 0.960136 1.91328 0.805449 3.0875C0.728105 3.71328 0.728105 25.6367 0.81248 26.2625C0.896855 26.9234 1.26951 27.6758 1.72654 28.0836C2.11326 28.4352 2.71092 28.7445 3.13279 28.8078L3.40701 28.85L3.4281 32.0492L3.4492 35.2484L3.68123 35.4523C3.99764 35.7336 4.25779 35.7195 4.96795 35.375C5.29139 35.2203 5.59373 35.0937 5.64295 35.0937C5.69217 35.0937 6.05076 35.2344 6.44451 35.4102C6.84529 35.5859 7.26717 35.7266 7.40779 35.7266C7.54842 35.7266 7.9492 35.593 8.34998 35.4102C8.7367 35.2344 9.08826 35.0937 9.14451 35.0937C9.19373 35.0937 9.55935 35.2414 9.96014 35.4172C10.839 35.8039 10.9867 35.8039 11.9008 35.375L12.5476 35.0727L13.2156 35.3609C14.0242 35.7195 14.3125 35.7406 14.6008 35.4523L14.8047 35.2484V32.0492V28.85L15.114 28.8078C15.9297 28.6812 16.8015 27.9711 17.2164 27.0992C17.4344 26.6352 17.4414 26.593 17.4625 25.468L17.4906 24.3148L17.8211 24.8914C18.0039 25.2078 18.1867 25.4961 18.2289 25.5383C18.2781 25.5875 18.257 25.8055 18.1656 26.2555C17.9336 27.3383 18.0742 27.9711 18.6578 28.4984C19.0515 28.85 19.4804 28.9977 20.0219 28.9625C20.2679 28.9484 20.5703 28.8852 20.6969 28.8148C20.9359 28.7023 20.9359 28.7023 21.1047 28.9062C21.3929 29.2437 21.9554 29.4758 22.4828 29.4758C22.7289 29.4758 23.0172 29.4406 23.1297 29.3984C23.2422 29.3562 23.3406 29.3352 23.3476 29.3422C23.3547 29.3562 23.432 29.5531 23.5234 29.7852C24.1492 31.4094 25.1476 32.8719 26.4836 34.1305C27.0601 34.6789 27.2359 34.9039 27.6297 35.5859C27.8898 36.0289 28.1359 36.4156 28.1851 36.4437C28.2344 36.4719 28.389 36.5 28.5297 36.5C28.8179 36.5 29.0781 36.2539 29.0781 35.9797C29.0781 35.8953 28.8601 35.4383 28.5859 34.9602C28.1429 34.1727 28.0164 34.0109 27.2219 33.2375C25.689 31.7398 24.789 30.2703 24.2617 28.4211C23.9664 27.3945 23.889 26.6914 23.7695 24.2234C23.6992 22.8242 23.6148 21.7414 23.5656 21.5937C23.5164 21.4602 23.0594 20.6164 22.539 19.7305C21.4914 17.9234 21.407 17.6633 21.6883 17.2133C21.9765 16.7492 22.6304 16.6227 23.0523 16.9531C23.1508 17.0305 23.4883 17.5437 23.8117 18.0922C24.1281 18.6477 24.4375 19.1328 24.5008 19.182C24.8312 19.4422 25.3515 19.1539 25.3515 18.718C25.3515 18.4437 24.4023 16.7281 24.0226 16.2992C23.0594 15.2234 21.2734 15.4766 20.6336 16.7773C20.4226 17.1992 20.4156 17.2695 20.4437 17.825L20.4719 18.4156L21.4914 20.1945C22.4828 21.9453 22.5039 21.9875 22.5531 22.5078C22.5742 22.7961 22.6023 23.2461 22.6023 23.5062L22.6094 23.9773L21.5054 24.6031C20.8937 24.9477 20.3031 25.25 20.1976 25.2781C19.9023 25.3484 19.5015 25.2078 19.2554 24.9547C19.1359 24.8281 18.1023 23.0773 16.9562 21.0664C15.8101 19.0555 14.8187 17.368 14.7554 17.3187C14.6922 17.2766 14.5164 17.2344 14.3758 17.2344C14.0804 17.2344 13.8203 17.4805 13.8203 17.7547C13.8203 17.832 14.0242 18.2609 14.2773 18.7039C14.5304 19.1398 14.7344 19.5055 14.7344 19.5125C14.7344 19.5125 14.2633 19.5195 13.6867 19.5195C12.7375 19.5195 12.6179 19.5336 12.4351 19.6672C12.0554 19.9414 11.9851 20.1945 12.0062 21.1508C12.0273 21.882 12.0484 22.0367 12.175 22.2055C12.4422 22.5711 12.7094 22.6484 13.6797 22.6484C15.0578 22.6484 15.3109 22.4516 15.3672 21.3266L15.4023 20.6516L15.8804 21.4953L16.3586 22.332L16.3375 24.3711C16.3164 26.6773 16.3094 26.7125 15.7187 27.2469C15.1281 27.7812 15.55 27.7461 9.29217 27.7672C3.07654 27.7883 3.23123 27.7953 2.62654 27.3383C2.4367 27.1977 2.24685 26.9516 2.11326 26.6914L1.90232 26.2766V14.675V3.0664L2.0992 2.66562C2.31717 2.21562 2.59139 1.95546 3.06248 1.7375C3.37185 1.58984 3.44217 1.58984 9.10935 1.58984H14.8398L15.2125 1.75859C15.4234 1.85703 15.6976 2.06093 15.8594 2.23671C16.3304 2.77812 16.3586 2.93281 16.3375 5.3164L16.3164 7.41875L15.8594 7.68593L15.4023 7.94609L15.3672 6.49062C15.339 5.23203 15.3109 5 15.2054 4.83125C14.9383 4.43047 15.0859 4.4375 9.10232 4.4375C3.0906 4.4375 3.30154 4.42344 3.01326 4.84531C2.90076 5.01406 2.8867 5.19687 2.8867 6.42734V7.82656L3.08357 7.99531C3.32264 8.19921 3.54764 8.21328 3.79373 8.0164L3.97654 7.87578V6.71562V5.5625H9.10935H14.2422V7.08828L14.2351 8.62109L12.9344 9.35937C11.4719 10.182 11.1062 10.4984 10.8953 11.1383C10.7617 11.518 10.7336 12.1297 10.8179 12.4672L10.8672 12.6641H7.42185H3.97654V11.1172C3.97654 9.66172 3.96951 9.56328 3.83592 9.42968C3.6531 9.24687 3.25232 9.23984 3.06951 9.42265C2.85857 9.63359 2.83748 9.89375 2.8656 11.6305C2.8867 13.1141 2.89373 13.2266 3.03435 13.4164C3.3156 13.7961 3.21717 13.7891 7.4992 13.7891H11.4719L12.0976 14.893C12.8429 16.2078 13.0258 16.4258 13.3422 16.3625C13.6656 16.2992 13.8203 16.1305 13.8203 15.8352C13.8203 15.6383 13.6164 15.2234 12.8992 13.9859C12.4 13.107 11.957 12.2844 11.9219 12.1578C11.8304 11.8625 11.9429 11.4477 12.189 11.1875C12.4844 10.8641 20.964 6.04765 21.3086 6.00547C21.6812 5.95625 22.0539 6.11797 22.2789 6.41328C22.6445 6.90547 29.4929 18.9852 29.5351 19.2242C29.5984 19.5406 29.3804 20.0398 29.1062 20.2367C28.9937 20.3141 28.4875 20.6164 27.9742 20.9117L27.0461 21.4461L26.6875 20.8203C26.4906 20.4828 26.2867 20.1805 26.2234 20.1594C25.8578 20.0187 25.464 20.2016 25.3867 20.5461C25.3445 20.7289 25.4429 20.9398 26.125 22.1422C26.5609 22.9016 26.9687 23.5625 27.032 23.6117C27.1656 23.7172 27.4961 23.7312 27.6719 23.6328C27.7422 23.5977 27.8336 23.4641 27.8758 23.3375C27.9461 23.1406 27.932 23.0633 27.7914 22.775L27.6226 22.4305L28.1219 22.1422C30.0273 21.0453 30.1258 20.975 30.407 20.4406C30.4844 20.2859 30.5898 19.9906 30.632 19.7867C30.7726 19.182 30.6461 18.6969 30.0976 17.7336C29.732 17.0867 29.6758 16.9531 29.8304 17.1008C29.9359 17.1992 30.5195 17.6914 31.1172 18.1977C31.7148 18.7039 32.3758 19.3297 32.5797 19.5828C33.5078 20.7219 34.0633 22.0367 34.2179 23.457C34.2953 24.1883 34.2883 24.3781 34.007 27.1836C33.8383 28.8078 33.7047 30.2773 33.6976 30.4531C33.6906 30.7273 33.7609 30.8961 34.2039 31.6484C34.4781 32.1336 34.7594 32.5695 34.8226 32.6187C34.9914 32.7453 35.364 32.7242 35.5469 32.5766C35.8211 32.3586 35.7578 32.0422 35.2586 31.1844L34.8156 30.418L35.125 27.3312C35.4203 24.3992 35.4273 24.2023 35.35 23.4289C35.1742 21.6852 34.5484 20.1734 33.4586 18.8375C33.0367 18.3172 32.6429 17.9727 29.8515 15.6242L27.9953 14.0562L25.6187 9.90078C24.3179 7.62265 23.1437 5.64687 23.0172 5.51328C22.4828 4.96484 21.5406 4.72578 20.7742 4.95781C20.5633 5.02109 19.7476 5.44296 18.9531 5.90703L17.5117 6.73672L17.4695 4.76093C17.4484 3.60078 17.3992 2.69374 17.357 2.56015C17.0898 1.78672 16.4711 1.09765 15.7328 0.732029L15.332 0.535152L9.24998 0.521091C4.47576 0.514057 3.10467 0.528122 2.8867 0.598434ZM14.2422 21.0664V21.5234H13.6797H13.1172V21.0664V20.6094H13.6797H14.2422V21.0664ZM22.7429 26.2555C22.7922 26.7898 22.8695 27.4437 22.9258 27.6969C23.0101 28.1258 23.0101 28.175 22.9047 28.2383C22.5531 28.4422 22.1664 28.3859 21.9273 28.0836C21.7234 27.8305 21.7234 27.6758 21.9554 26.5156C22.1453 25.5594 22.1453 25.5523 22.3914 25.4117C22.532 25.3414 22.6515 25.2781 22.6515 25.2781C22.6586 25.2852 22.7008 25.7211 22.7429 26.2555ZM20.4086 26.382C20.6265 26.3398 20.8164 26.3117 20.8234 26.3258C20.8586 26.3609 20.6406 27.3312 20.5562 27.4859C20.3594 27.8656 19.7969 27.957 19.4594 27.6758C19.1922 27.4508 19.1289 27.1906 19.2344 26.7055L19.3117 26.3258L19.6633 26.3961C19.9023 26.4453 20.1344 26.4383 20.4086 26.382ZM13.6797 31.6133V34.3133L13.1945 34.1094C12.9203 33.9898 12.6179 33.8984 12.5195 33.8984C12.4211 33.8984 12.0133 34.0531 11.6125 34.2359L10.8953 34.5805L10.1219 34.243C9.69998 34.0531 9.25701 33.9055 9.13748 33.8984C9.01795 33.8984 8.57498 34.0531 8.16717 34.243L7.41482 34.5875L6.61326 34.243C6.17732 34.0531 5.72732 33.8984 5.61482 33.8984C5.50935 33.8984 5.22107 33.9898 4.98201 34.1094L4.53904 34.3133V31.6133V28.9062H9.10935H13.6797V31.6133Z" fill="#E6E6E6"/>
<path d="M18.6437 9.32422C17.568 9.59844 16.4781 10.4703 16.007 11.4336C15.6977 12.0664 15.6414 12.5727 15.8523 12.7695C16.0562 12.9453 16.457 12.9453 16.6258 12.7695C16.6961 12.6922 16.8086 12.4813 16.8719 12.2914C17.3641 10.9484 18.8477 10.1117 20.2117 10.407C20.6547 10.4984 20.9078 10.4141 21.0484 10.1117C21.1891 9.82344 21.0766 9.56328 20.7531 9.40156C20.3945 9.22578 19.2133 9.18359 18.6437 9.32422Z" fill="#E6E6E6"/>
<path d="M19.0164 11.4195C18.5804 11.5812 18.257 11.8203 18.0461 12.1297C17.5609 12.8398 17.6664 13.4515 18.2851 13.4515C18.5945 13.4515 18.7211 13.3531 18.8617 13.0015C19.0164 12.6219 19.3257 12.4531 19.825 12.4742C20.1906 12.4883 20.2468 12.4672 20.4015 12.2914C20.6125 12.0453 20.6195 11.8133 20.4086 11.5672C20.2679 11.4054 20.1836 11.3773 19.7546 11.3562C19.4523 11.3351 19.1711 11.3633 19.0164 11.4195Z" fill="#E6E6E6"/>
<path d="M19.6773 13.2969C19.3328 13.4375 19.2766 13.8946 19.5578 14.3024C19.832 14.7102 20.1977 14.7875 20.5211 14.5063C20.8727 14.1969 20.4086 13.2055 19.9164 13.2336C19.8672 13.2336 19.7617 13.2618 19.6773 13.2969Z" fill="#E6E6E6"/>
<path d="M3.58281 15.5539C3.31562 15.6313 3.00625 15.9266 2.93594 16.1727C2.90781 16.2711 2.88672 16.7 2.88672 17.1289C2.88672 17.8109 2.90781 17.9305 3.04844 18.1555C3.28047 18.5422 3.60391 18.6406 4.58828 18.6406C5.26328 18.6406 5.46016 18.6125 5.69922 18.5C6.16328 18.275 6.22656 18.0922 6.22656 17.0305V16.1164L6.00859 15.8703C5.88906 15.7297 5.67812 15.5891 5.5375 15.5469C5.22109 15.4625 3.88516 15.4625 3.58281 15.5539ZM5.10156 17.0586V17.5156H4.53906H3.97656V17.0586V16.6016H4.53906H5.10156V17.0586Z" fill="#E6E6E6"/>
<path d="M8.01953 15.6031C7.52031 15.8352 7.45703 16.0109 7.45703 17.0586C7.45703 17.8883 7.47109 17.9937 7.61172 18.1906C7.87891 18.5633 8.13906 18.6406 9.12344 18.6406C10.1078 18.6406 10.368 18.5562 10.6352 18.1555C10.7828 17.9375 10.7969 17.832 10.7969 17.0656C10.7969 16.1305 10.7195 15.8914 10.3258 15.6383C10.0305 15.4414 8.41328 15.4203 8.01953 15.6031ZM9.67188 17.0586V17.5156H9.10938H8.54688V17.0586V16.6016H9.10938H9.67188V17.0586Z" fill="#E6E6E6"/>
<path d="M3.44922 19.625C2.97812 19.857 2.88672 20.082 2.88672 21.0664C2.88672 22.0508 2.97812 22.2758 3.44922 22.5078C3.68828 22.6273 3.88516 22.6484 4.57422 22.6484C5.26328 22.6484 5.46016 22.6273 5.69922 22.5078C6.15625 22.2828 6.22656 22.1 6.22656 21.0664C6.22656 20.0328 6.15625 19.85 5.69922 19.625C5.27734 19.4211 3.85703 19.4211 3.44922 19.625ZM5.10156 21.0664V21.5234H4.53906H3.97656V21.0664V20.6094H4.53906H5.10156V21.0664Z" fill="#E6E6E6"/>
<path d="M7.99141 19.6391C7.52031 19.8852 7.42188 20.1313 7.42188 21.0524C7.42188 21.9243 7.51328 22.1985 7.87187 22.4586C8.06875 22.5993 8.18828 22.6133 9.03906 22.6344C10.1148 22.6555 10.3539 22.5922 10.6352 22.1633C10.7828 21.9453 10.7969 21.8399 10.7969 21.0735C10.7969 20.3563 10.7758 20.1875 10.6562 19.9977C10.4031 19.5828 10.2344 19.5196 9.21484 19.4985C8.37109 19.4774 8.27969 19.4914 7.99141 19.6391ZM9.67188 21.0664V21.5235H9.10938H8.54688V21.0664V20.6094H9.10938H9.67188V21.0664Z" fill="#E6E6E6"/>
<path d="M3.44922 23.6328C2.97812 23.8648 2.88672 24.0898 2.88672 25.0742C2.88672 26.0586 2.97812 26.2836 3.44922 26.5156C3.68828 26.6352 3.88516 26.6562 4.57422 26.6562C5.26328 26.6562 5.46016 26.6352 5.69922 26.5156C6.15625 26.2906 6.22656 26.1078 6.22656 25.0742C6.22656 24.0406 6.15625 23.8578 5.69922 23.6328C5.27734 23.4289 3.85703 23.4289 3.44922 23.6328ZM5.10156 25.0742V25.5312H4.53906H3.97656V25.0742V24.6172H4.53906H5.10156V25.0742Z" fill="#E6E6E6"/>
<path d="M8.16017 23.5414C7.91407 23.6047 7.65392 23.8297 7.52735 24.0969C7.3586 24.4555 7.40079 25.8969 7.5836 26.1782C7.85079 26.5649 8.01251 26.6211 9.03907 26.6422C10.1149 26.6633 10.3539 26.6 10.6352 26.1711C10.7828 25.9532 10.7969 25.8477 10.7969 25.0743C10.7969 24.3008 10.7828 24.1953 10.6352 23.9774C10.368 23.5766 10.1078 23.4922 9.14454 23.4993C8.68048 23.5063 8.23751 23.5274 8.16017 23.5414ZM9.67188 25.0743V25.5313H9.10938H8.54688V25.0743V24.6172H9.10938H9.67188V25.0743Z" fill="#E6E6E6"/>
<path d="M12.6672 23.5625C12.1469 23.7242 11.9922 24.0758 11.9922 25.0883C11.9922 25.932 12.0836 26.2133 12.4352 26.4734C12.618 26.607 12.7375 26.6211 13.6797 26.6211C14.8539 26.6211 15.0016 26.5719 15.2406 26.0867C15.4164 25.7422 15.4164 24.4062 15.2406 24.0617C15.0086 23.5906 14.8328 23.5273 13.7992 23.5133C13.2859 23.5063 12.7797 23.5273 12.6672 23.5625ZM14.2422 25.0742V25.5312H13.6797H13.1172V25.0742V24.6172H13.6797H14.2422V25.0742Z" fill="#E6E6E6"/>
</g>
<defs>
<clipPath id="clip0_2895_202744">
<rect width="36" height="36" fill="white" transform="translate(0.25 0.5)"/>
</clipPath>
</defs>
</svg>
