<svg width="37" height="36" viewBox="0 0 37 36" fill="none" xmlns="http://www.w3.org/2000/svg">
<g clip-path="url(#clip0_2895_202575)">
<path d="M6.48047 0.562519C4.22344 0.914082 2.47969 2.38361 1.72031 4.57033C1.49531 5.22424 1.48828 5.26643 1.48828 6.43361C1.48828 7.6008 1.49531 7.64299 1.72031 8.2969C2.34609 10.0969 3.63281 11.4188 5.34844 12.0235L5.70703 12.15L5.74219 23.0063L5.77734 33.8555L5.96719 34.2211C6.22031 34.6992 6.6 35.0649 7.07812 35.2899L7.46484 35.4727L20.1211 35.4938C29.1141 35.5078 32.9109 35.4867 33.2484 35.4375C34.1625 35.2828 34.9852 34.7625 35.4844 34.0172C35.9836 33.2719 36.0328 32.9906 36.0539 30.7688L36.075 28.8141L35.9133 28.6805C35.7586 28.5539 35.5898 28.5469 33.0516 28.5469H30.3516L30.3375 17.4867L30.3164 6.43361L30.1406 6.08205C29.8945 5.5758 29.4023 5.11174 28.9242 4.92893L28.5164 4.78127H20.7328H12.9492L12.7875 4.3383C12.457 3.42424 11.8031 2.50314 11.0367 1.8633C10.4813 1.40627 9.36328 0.836739 8.68828 0.675018C8.09766 0.534393 7.02188 0.478146 6.48047 0.562519ZM8.34375 1.79299C9.66563 2.10236 10.8539 3.05158 11.4656 4.28908C11.8875 5.14689 12.0281 5.79377 11.9789 6.68674C11.7961 10.2164 7.94297 12.3188 4.9125 10.5328C4.69453 10.4063 4.27266 10.0617 3.97734 9.76643C2.73281 8.54299 2.28984 6.70783 2.81719 5.02736C3.32344 3.4383 4.54688 2.25705 6.14297 1.82814C6.74063 1.66643 7.725 1.65236 8.34375 1.79299ZM28.5234 6.06096C28.6992 6.15236 28.9102 6.32814 28.9945 6.46174L29.1563 6.7008V19.3641C29.1563 27.0422 29.1844 32.2313 29.2266 32.5477C29.2969 33.061 29.6414 33.9469 29.8313 34.1086C29.8875 34.1508 29.9297 34.2141 29.9297 34.2492C29.9297 34.2844 25.1555 34.3125 18.8484 34.3125C6.43828 34.3125 7.45781 34.3547 7.09219 33.7992L6.90234 33.511L6.88125 22.9571L6.86719 12.3961L7.54922 12.3469C8.77969 12.2696 9.58828 12.0024 10.5656 11.3485C12.1617 10.2938 13.1109 8.52893 13.1461 6.56018L13.1602 5.90627H20.6836H28.2141L28.5234 6.06096ZM34.9078 31.1625C34.8867 32.5828 34.8797 32.6742 34.7109 33.0117C34.4648 33.525 33.9727 33.9821 33.4734 34.1719C32.932 34.3758 32.0953 34.3477 31.6313 34.1086C31.1742 33.8766 30.8016 33.4969 30.5836 33.061C30.3867 32.6672 30.3867 32.6391 30.3656 31.1625L30.3445 29.6719H32.6367H34.9359L34.9078 31.1625Z" fill="white"/>
<path d="M7.10623 2.32739C7.03592 2.40473 6.95858 2.61567 6.93748 2.79848C6.90233 3.09379 6.88123 3.12895 6.6703 3.19223C6.34686 3.28364 5.79139 3.80395 5.61561 4.16957C5.2992 4.84457 5.36248 5.63911 5.77029 6.23676C6.07264 6.67973 6.51561 6.94692 7.10623 7.04536C7.49998 7.10864 7.60545 7.15786 7.78123 7.36176C8.08358 7.69926 8.07655 8.12817 7.7742 8.4727C7.60545 8.66254 7.49998 8.71879 7.31717 8.71879C6.96561 8.71879 6.6703 8.42348 6.59295 7.98051C6.47342 7.34067 5.98826 7.1227 5.58748 7.53051C5.39061 7.72739 5.37654 7.76957 5.4117 8.10004C5.50311 8.85239 6.05858 9.60473 6.6703 9.78754C6.8953 9.85082 6.93748 9.89301 6.93748 10.0618C6.93748 10.1672 6.95858 10.3079 6.97967 10.3711C7.04998 10.5469 7.41561 10.7086 7.63358 10.6524C7.94998 10.575 8.06248 10.4133 8.06248 10.0407C8.06248 9.85786 8.09061 9.70317 8.11873 9.70317C8.26639 9.70317 8.7867 9.16176 8.95545 8.83832C9.58123 7.59379 8.81483 6.07504 7.47889 5.92739C7.01483 5.87817 6.8953 5.80786 6.72654 5.53364C6.55076 5.24536 6.55076 4.89379 6.72654 4.60551C7.13436 3.94457 7.86561 4.21879 8.02029 5.08364C8.09061 5.44926 8.28045 5.62504 8.61795 5.62504C9.48983 5.62504 9.29295 4.06411 8.3367 3.40317C8.07655 3.22739 8.06248 3.19926 8.06248 2.84067C8.06248 2.55239 8.02733 2.42583 7.92186 2.32036C7.73201 2.13051 7.28904 2.13051 7.10623 2.32739Z" fill="white"/>
<path d="M18.1664 10.2938C14.6227 11.5453 11.6555 12.6211 11.5781 12.6914C11.4867 12.7758 11.4375 12.9094 11.4375 13.0922C11.4375 13.4367 11.6344 13.6406 11.9578 13.6406C12.2883 13.6406 25.0008 9.18281 25.1766 9C25.3594 8.81719 25.3594 8.40938 25.1766 8.22656C25.1063 8.14922 24.9445 8.07188 24.832 8.05781C24.6773 8.02969 22.8914 8.63438 18.1664 10.2938Z" fill="white"/>
<path d="M23.4258 11.9883L23.25 12.1571V15.4688V18.7735H22.582H21.914V15.975C21.914 13.2118 21.914 13.1696 21.7664 13.036C21.6328 12.9165 21.4992 12.9024 20.4656 12.9024C19.3617 12.9024 19.3125 12.9094 19.1578 13.0641L18.9961 13.2258L18.975 15.9961L18.9539 18.7735H18.3281H17.6953V16.5235V14.2665L17.5195 14.0977C17.3578 13.929 17.3226 13.9219 16.2679 13.9219C15.2765 13.9219 15.164 13.936 14.9953 14.0696L14.8125 14.2102V16.4954V18.7735H14.1445H13.4765V17.0649C13.4765 14.8711 13.6031 15.0469 11.9859 15.0469H10.8117L10.6711 15.2297C10.5304 15.4055 10.5234 15.504 10.5234 17.086V18.7594L9.95388 18.7875C9.4617 18.8086 9.37029 18.8297 9.25076 18.9774C9.1031 19.1602 9.07498 19.5258 9.20857 19.6946C9.41951 19.9688 9.31404 19.9688 18.3633 19.9688C27.6937 19.9688 27.4406 19.9758 27.5672 19.6524C27.6586 19.4063 27.6094 19.118 27.4336 18.9493C27.2859 18.7946 27.2015 18.7735 26.7304 18.7735H26.2031V15.4688V12.1571L26.0273 11.9883C25.8586 11.8196 25.8375 11.8125 24.7265 11.8125C23.6156 11.8125 23.5945 11.8196 23.4258 11.9883ZM25.0078 15.8555V18.7735H24.6914H24.375V15.8555V12.9375H24.6914H25.0078V15.8555ZM20.789 16.418V18.7735H20.4726H20.1562V16.418V14.0625H20.4726H20.789V16.418ZM16.5 16.9454V18.7735H16.2187H15.9375V16.9454V15.1172H16.2187H16.5V16.9454ZM12.3515 17.4727V18.7735H12.0351H11.7187V17.4727V16.1719H12.0351H12.3515V17.4727Z" fill="white"/>
<path d="M9.8625 21.6633L9.67969 21.8039V23.7375C9.67969 24.8695 9.70781 25.7273 9.75 25.8047C9.87656 26.0438 10.207 26.0859 11.9297 26.0859C13.6523 26.0859 13.9828 26.0438 14.1094 25.8047C14.1516 25.7273 14.1797 24.8695 14.1797 23.7375V21.8039L13.9969 21.6633C13.8141 21.5227 13.7227 21.5156 11.9297 21.5156C10.1367 21.5156 10.0453 21.5227 9.8625 21.6633ZM13.0547 23.7656V24.8906H11.9297H10.8047V23.7656V22.6406H11.9297H13.0547V23.7656Z" fill="white"/>
<path d="M15.832 21.9023C15.607 22.1203 15.607 22.4297 15.825 22.6898L15.9937 22.8867H20.9296H25.8656L26.0343 22.6898C26.2523 22.4297 26.2523 22.1203 26.0273 21.9023L25.8586 21.7266H20.9296H16.0007L15.832 21.9023Z" fill="white"/>
<path d="M15.832 24.8555C15.614 25.0664 15.607 25.3688 15.8039 25.6219L15.9445 25.8047H20.9297H25.9148L26.0555 25.6219C26.2523 25.3688 26.2453 25.0664 26.0273 24.8555L25.8586 24.6797H20.9297H16.0008L15.832 24.8555Z" fill="white"/>
<path d="M9.83437 27.7945C9.67969 27.9563 9.67969 28.0055 9.67969 29.9039C9.67969 31.7602 9.68672 31.8586 9.82031 31.9922C9.95391 32.1258 10.0523 32.1328 11.9297 32.1328C13.807 32.1328 13.9055 32.1258 14.0391 31.9922C14.1727 31.8586 14.1797 31.7602 14.1797 29.8969C14.1797 27.9422 14.1797 27.9352 14.018 27.7875C13.8562 27.6398 13.807 27.6328 11.9227 27.6328C9.98906 27.6328 9.98203 27.6328 9.83437 27.7945ZM13.0547 29.8828V31.0078H11.9297H10.8047V29.8828V28.7578H11.9297H13.0547V29.8828Z" fill="white"/>
<path d="M15.832 28.0195C15.614 28.2305 15.607 28.5328 15.8039 28.7859L15.9445 28.9688H20.9297H25.9148L26.0555 28.7859C26.2523 28.5328 26.2453 28.2305 26.0273 28.0195L25.8586 27.8438H20.9297H16.0008L15.832 28.0195Z" fill="white"/>
<path d="M15.8039 31.05C15.607 31.3031 15.614 31.6055 15.832 31.8164L16.0008 31.9922H20.9297H25.8586L26.0273 31.8164C26.2453 31.6055 26.2523 31.3031 26.0555 31.05L25.9148 30.8672H20.9297H15.9445L15.8039 31.05Z" fill="white"/>
</g>
<defs>
<clipPath id="clip0_2895_202575">
<rect width="36" height="36" fill="white" transform="translate(0.75)"/>
</clipPath>
</defs>
</svg>
