<svg width="37" height="36" viewBox="0 0 37 36" fill="none" xmlns="http://www.w3.org/2000/svg">
<g clip-path="url(#clip0_2895_202544)">
<path d="M1.30547 0.161713C1.17891 0.246086 0.996094 0.428902 0.911719 0.555462L0.75 0.794525V16.0664V31.3383L0.911719 31.5773C1.20703 32.0133 1.46719 32.1328 2.12812 32.1328H2.71875V32.6602C2.71875 33.2789 2.82422 33.5812 3.13359 33.8414C3.40781 34.0664 3.75937 34.1719 4.27266 34.1719H4.67344L4.70156 34.6852C4.71562 35.1 4.76484 35.2617 4.9125 35.4867C5.27812 36.0422 4.56094 36 14.1516 36H22.7156L25.2891 33.4336L27.8555 30.8672L27.8766 28.1672L27.8977 25.4672L28.4742 25.418C28.7906 25.3969 29.2477 25.3406 29.4797 25.3055C30.6187 25.1367 32.3836 24.4336 32.5383 24.0891C32.693 23.7586 32.4258 23.2734 32.0812 23.2734C31.9898 23.2734 31.6523 23.4 31.3289 23.5477C29.1633 24.5672 26.8359 24.5391 24.6914 23.4914C24.3047 23.3016 23.7844 22.9922 23.5453 22.8094L23.0953 22.4789L25.6547 19.9195C27.0539 18.5203 28.2352 17.3672 28.2773 17.3672C28.4109 17.3672 35.0977 19.1461 35.1539 19.1953C35.2945 19.3219 34.6406 20.5734 33.9937 21.4172C33.6 21.9375 33.5578 22.1977 33.832 22.4648C34.2258 22.8656 34.5773 22.6547 35.3086 21.5508C36.3281 20.018 36.75 18.5766 36.75 16.65C36.75 14.3367 35.9484 12.3187 34.3734 10.6734C32.8195 9.04922 30.8578 8.14922 28.5094 7.98046L27.8203 7.93125V6.29296C27.8203 4.71093 27.8133 4.65468 27.6586 4.42265C27.3633 3.98671 27.1031 3.86718 26.4422 3.86718H25.8516V3.3539C25.8516 2.40468 25.4086 1.96874 24.4383 1.96874H23.8969L23.8758 1.38515C23.8547 0.892963 23.8195 0.752338 23.6578 0.513275C23.2922 -0.0421944 24.2695 -7.62939e-06 12.2602 -7.62939e-06H1.54453L1.30547 0.161713ZM22.6453 1.09687C22.7297 1.13203 22.7578 1.24453 22.7578 1.5539V1.96874L16.5281 1.98281L10.2914 2.0039L10.1508 2.19374C10.0312 2.35546 10.0172 2.43281 10.0734 2.65078C10.1156 2.81953 10.2 2.94609 10.3125 3.00234C10.4531 3.07265 12.0211 3.09374 17.6109 3.09374H24.7266V3.48046V3.86718H15.15H5.56641L5.29219 4.0289C5.11641 4.12734 4.95469 4.30312 4.84922 4.49296L4.6875 4.80234V18.9281V33.0539L4.28672 33.0328L3.87891 33.0117L3.85781 18.0562L3.84375 3.10078L5.88281 3.07968C8.13281 3.05859 8.09766 3.06562 8.175 2.59452C8.20312 2.41171 8.175 2.30624 8.0625 2.15859L7.91484 1.96874H5.76328C3.66797 1.96874 3.61172 1.97578 3.3375 2.12343C3.18281 2.21484 2.97891 2.41171 2.8875 2.57343L2.71875 2.86171V16.9312V31.0078H2.29688H1.875V16.0734C1.875 4.19062 1.89609 1.13203 1.96641 1.1039C2.09297 1.04765 22.5117 1.04765 22.6453 1.09687ZM26.7234 5.10468C26.7445 5.16796 26.7656 5.85703 26.7656 6.6375V8.06484L26.4703 8.10703C25.95 8.17734 24.9305 8.50781 24.3117 8.79609C22.2094 9.78047 20.5148 11.6789 19.7766 13.8727C19.4391 14.8992 19.3477 15.4828 19.3477 16.6992C19.3547 17.9437 19.4531 18.5836 19.8188 19.6172C20.6203 21.9023 22.35 23.7586 24.5719 24.7219C25.1344 24.9609 26.3578 25.3125 26.632 25.3125C26.7586 25.3125 26.7656 25.4109 26.7656 27.668V30.0164L24.7055 30.0375L22.6383 30.0586L22.3781 30.2625C21.8719 30.6422 21.8438 30.7898 21.8438 32.9906V34.9453H13.9406C9.59531 34.9453 5.98828 34.9242 5.925 34.9031C5.81953 34.8609 5.8125 33.4828 5.8125 19.9758C5.8125 11.7844 5.83359 5.06249 5.86172 5.0414C5.88281 5.01328 10.5797 4.99218 16.2961 4.99218C25.6969 4.99218 26.6812 4.99921 26.7234 5.10468ZM29.0859 9.17578C29.9437 9.30234 30.6047 9.50625 30.5766 9.63281C30.5625 9.68906 29.8875 11.2219 29.0719 13.0359L27.5883 16.3477L24.9375 19.0125L22.2797 21.6773L21.9211 21.1922C19.0031 17.2477 20.6062 11.5594 25.1625 9.675C26.4914 9.12656 27.7359 8.96484 29.0859 9.17578ZM32.2781 10.3852C32.9742 10.8422 34.0289 11.932 34.493 12.6844C34.95 13.4156 35.3086 14.3437 35.4984 15.2578C35.6109 15.7992 35.632 16.1227 35.6109 16.9594C35.5969 17.5289 35.5617 18.0141 35.5406 18.0352C35.4914 18.0844 29.0156 16.3969 28.9242 16.3125C28.8609 16.2562 31.6242 10.0547 31.7156 10.0547C31.7437 10.0547 31.9969 10.2023 32.2781 10.3852ZM24.5227 32.5477C23.7844 33.3141 23.1305 33.982 23.0742 34.0312C22.9828 34.1086 22.9688 33.9539 22.9688 32.6812C22.9688 31.8867 22.9898 31.2187 23.018 31.1977C23.0391 31.1695 23.693 31.1484 24.4664 31.1484H25.8656L24.5227 32.5477Z" fill="white"/>
<path d="M8.94844 8.79609C8.71641 8.97891 8.68828 9.41484 8.90625 9.63281C9.04688 9.77344 9.13828 9.77344 14.4609 9.77344C19.7836 9.77344 19.875 9.77344 20.0156 9.63281C20.107 9.54141 20.1563 9.40078 20.1563 9.21094C20.1563 9.02109 20.107 8.88047 20.0156 8.78906C19.875 8.64844 19.7836 8.64844 14.5031 8.64844C9.18047 8.64844 9.13125 8.64844 8.94844 8.79609Z" fill="white"/>
<path d="M8.95546 12.6562C8.7164 12.8461 8.68827 13.282 8.90624 13.5C9.04687 13.6406 9.13827 13.6406 13.2656 13.6406C17.393 13.6406 17.4844 13.6406 17.625 13.5C17.7937 13.3312 17.8148 12.8883 17.6672 12.6844C17.5687 12.5578 17.4281 12.5508 13.35 12.5297C9.1664 12.5156 9.13827 12.5156 8.95546 12.6562Z" fill="white"/>
<path d="M8.94844 16.5305C8.71641 16.7133 8.68828 17.1492 8.90625 17.3672C9.03985 17.5008 9.13828 17.5078 12.7031 17.5078C16.268 17.5078 16.3664 17.5008 16.5 17.3672C16.6406 17.2266 16.6969 16.7836 16.5844 16.6219C16.4367 16.3969 16.2188 16.3828 12.682 16.3828C9.20156 16.3828 9.13125 16.3828 8.94844 16.5305Z" fill="white"/>
<path d="M12.5766 22.3594C12.4922 22.3945 12.3867 22.507 12.3516 22.6055C12.3094 22.711 12.2813 23.5125 12.2813 24.4055V26.0156H11.1633C10.1438 26.0156 10.0313 26.0297 9.86253 26.1633L9.67972 26.3039V28.343V30.375H9.39847C8.86409 30.375 8.58284 30.9024 8.89925 31.2961L9.03284 31.4649L14.0532 31.486C17.5899 31.5 19.1227 31.4789 19.2563 31.4227C19.6149 31.275 19.6782 30.7055 19.3617 30.4805C19.2774 30.4242 19.0946 30.375 18.9469 30.375H18.6797V27.675V24.968L18.4969 24.8274C18.3282 24.6938 18.2157 24.6797 17.1961 24.6797H16.0782V23.7305C16.0782 22.718 16.0219 22.493 15.7477 22.3664C15.5438 22.275 12.8157 22.268 12.5766 22.3594ZM14.9532 26.8945V30.375H14.1797H13.4063V26.8945V23.4141H14.1797H14.9532V26.8945ZM17.5547 28.0899V30.375H16.8164H16.0782V28.0899V25.8047H16.8164H17.5547V28.0899ZM12.2813 28.7578V30.375H11.543H10.8047V28.7578V27.1406H11.543H12.2813V28.7578Z" fill="white"/>
</g>
<defs>
<clipPath id="clip0_2895_202544">
<rect width="36" height="36" fill="white" transform="translate(0.75)"/>
</clipPath>
</defs>
</svg>
