<svg width="37" height="36" viewBox="0 0 37 36" fill="none" xmlns="http://www.w3.org/2000/svg">
<g clip-path="url(#clip0_2895_202521)">
<path d="M2.35312 4.39453C1.93828 4.54922 1.46719 4.90078 1.20703 5.25938C0.757031 5.87109 0.75 5.93438 0.75 8.78203C0.75 11.1867 0.757031 11.3695 0.883594 11.5594C1.10156 11.8828 1.36875 12.0234 1.80469 12.0234C2.21953 12.0234 2.49375 11.8898 2.70469 11.5945C2.81016 11.4469 2.83125 11.1305 2.85938 9.02109C2.8875 7.17891 2.91562 6.59531 2.98594 6.525C3.05625 6.45469 3.63984 6.42656 5.48203 6.39844C7.59141 6.37031 7.90781 6.34922 8.05547 6.24375C8.35078 6.03281 8.48438 5.75859 8.48438 5.34375C8.48438 4.90781 8.34375 4.64062 8.02031 4.42266C7.83047 4.29609 7.64766 4.28906 5.21484 4.29609C3.18984 4.29609 2.55703 4.31719 2.35312 4.39453Z" fill="white"/>
<path d="M29.4797 4.42261C29.1562 4.64057 29.0156 4.91479 29.0156 5.3437C29.0156 5.75854 29.1492 6.03276 29.4445 6.2437C29.5922 6.34917 29.9086 6.37026 32.018 6.39839C33.8602 6.42651 34.4438 6.45464 34.5141 6.52495C34.5844 6.59526 34.6125 7.17886 34.6406 9.02104C34.6758 11.6507 34.6688 11.6015 35.1117 11.8898C35.3859 12.0726 35.9906 12.0656 36.293 11.8828C36.757 11.5945 36.7641 11.5804 36.7359 8.64839L36.7148 6.01167L36.5391 5.66011C36.3211 5.21011 35.8289 4.71792 35.3789 4.49995L35.0273 4.32417L32.3555 4.30307C29.8313 4.28901 29.6695 4.29604 29.4797 4.42261Z" fill="white"/>
<path d="M5.43281 8.71172C5.32734 8.78203 5.17266 8.93672 5.10234 9.04219C4.97578 9.23906 4.96875 9.54141 4.96875 18C4.96875 26.4586 4.97578 26.7609 5.10234 26.9578C5.32031 27.2812 5.5875 27.4219 6.02344 27.4219C6.45937 27.4219 6.72656 27.2812 6.94453 26.9578C7.07109 26.7609 7.07812 26.4586 7.07812 18C7.07812 9.54141 7.07109 9.23906 6.94453 9.04219C6.72656 8.71875 6.45937 8.57812 6.02344 8.57812C5.76328 8.57812 5.57344 8.62031 5.43281 8.71172Z" fill="white"/>
<path d="M9.65156 8.71172C9.54609 8.78203 9.39141 8.93672 9.32109 9.04219C9.19453 9.23906 9.1875 9.48516 9.1875 15.1875C9.1875 20.8898 9.19453 21.1359 9.32109 21.3328C9.53906 21.6562 9.80625 21.7969 10.2422 21.7969C10.6781 21.7969 10.9453 21.6562 11.1633 21.3328C11.2898 21.1359 11.2969 20.8898 11.2969 15.1875C11.2969 9.48516 11.2898 9.23906 11.1633 9.04219C10.9453 8.71875 10.6781 8.57812 10.2422 8.57812C9.98203 8.57812 9.79219 8.62031 9.65156 8.71172Z" fill="white"/>
<path d="M13.8703 8.71172C13.7648 8.78203 13.6102 8.93672 13.5398 9.04219C13.4133 9.23906 13.4062 9.54141 13.4062 18C13.4062 26.4586 13.4133 26.7609 13.5398 26.9578C13.7578 27.2812 14.025 27.4219 14.4609 27.4219C14.8969 27.4219 15.1641 27.2812 15.382 26.9578C15.5086 26.7609 15.5156 26.4586 15.5156 18C15.5156 9.54141 15.5086 9.23906 15.382 9.04219C15.1641 8.71875 14.8969 8.57812 14.4609 8.57812C14.2008 8.57812 14.0109 8.62031 13.8703 8.71172Z" fill="white"/>
<path d="M18.0891 8.71172C17.9836 8.78203 17.8289 8.93672 17.7586 9.04219C17.632 9.23906 17.625 9.48516 17.625 15.1875C17.625 20.8898 17.632 21.1359 17.7586 21.3328C17.9766 21.6562 18.2437 21.7969 18.6797 21.7969C19.1156 21.7969 19.3828 21.6562 19.6008 21.3328C19.7273 21.1359 19.7344 20.8898 19.7344 15.1875C19.7344 9.48516 19.7273 9.23906 19.6008 9.04219C19.3828 8.71875 19.1156 8.57812 18.6797 8.57812C18.4195 8.57812 18.2297 8.62031 18.0891 8.71172Z" fill="white"/>
<path d="M22.3078 8.71172C22.2023 8.78203 22.0477 8.93672 21.9773 9.04219C21.8508 9.23906 21.8438 9.48516 21.8438 15.1875C21.8438 20.8898 21.8508 21.1359 21.9773 21.3328C22.1953 21.6562 22.4625 21.7969 22.8984 21.7969C23.3344 21.7969 23.6016 21.6562 23.8195 21.3328C23.9461 21.1359 23.9531 20.8898 23.9531 15.1875C23.9531 9.48516 23.9461 9.23906 23.8195 9.04219C23.6016 8.71875 23.3344 8.57812 22.8984 8.57812C22.6383 8.57812 22.4484 8.62031 22.3078 8.71172Z" fill="white"/>
<path d="M26.5266 8.71172C26.4211 8.78203 26.2664 8.93672 26.1961 9.04219C26.0695 9.23906 26.0625 9.48516 26.0625 15.1875C26.0625 20.8898 26.0695 21.1359 26.1961 21.3328C26.4141 21.6562 26.6812 21.7969 27.1172 21.7969C27.5531 21.7969 27.8203 21.6562 28.0383 21.3328C28.1648 21.1359 28.1719 20.8898 28.1719 15.1875C28.1719 9.48516 28.1648 9.23906 28.0383 9.04219C27.8203 8.71875 27.5531 8.57812 27.1172 8.57812C26.857 8.57812 26.6672 8.62031 26.5266 8.71172Z" fill="white"/>
<path d="M30.7453 8.71172C30.6398 8.78203 30.4852 8.93672 30.4148 9.04219C30.2883 9.23906 30.2812 9.54141 30.2812 18C30.2812 26.4586 30.2883 26.7609 30.4148 26.9578C30.6328 27.2812 30.9 27.4219 31.3359 27.4219C31.7719 27.4219 32.0391 27.2812 32.257 26.9578C32.3836 26.7609 32.3906 26.4586 32.3906 18C32.3906 9.54141 32.3836 9.23906 32.257 9.04219C32.0391 8.71875 31.7719 8.57812 31.3359 8.57812C31.0758 8.57812 30.8859 8.62031 30.7453 8.71172Z" fill="white"/>
<path d="M1.21409 24.1101C1.10159 24.1875 0.953932 24.3422 0.876588 24.4547C0.750025 24.6515 0.742994 24.8203 0.764088 27.3234L0.785182 29.9883L0.960963 30.3398C1.17893 30.7898 1.67112 31.282 2.12112 31.5L2.47268 31.6758L5.1094 31.6968C8.04143 31.725 8.05549 31.7179 8.34378 31.2539C8.52659 30.9515 8.53362 30.3468 8.35081 30.0726C8.06253 29.6297 8.11174 29.6367 5.48206 29.6015C3.63987 29.5734 3.05628 29.5453 2.98596 29.475C2.91565 29.4047 2.88753 28.8211 2.8594 26.9789C2.82424 24.3492 2.83128 24.3984 2.38831 24.1101C2.11409 23.9273 1.48831 23.9343 1.21409 24.1101Z" fill="white"/>
<path d="M35.1117 24.1101C34.6687 24.3984 34.6758 24.3492 34.6406 26.9789C34.6125 28.8211 34.5844 29.4047 34.5141 29.475C34.4437 29.5453 33.8601 29.5734 32.018 29.6015C29.3883 29.6367 29.4375 29.6297 29.1492 30.0726C28.9664 30.3468 28.9734 30.9515 29.1562 31.2539C29.4445 31.7179 29.4586 31.725 32.3906 31.6968L35.0273 31.6758L35.3789 31.5C35.8289 31.282 36.3211 30.7898 36.5391 30.3398L36.7148 29.9883L36.7359 27.3515C36.7641 24.4195 36.757 24.4054 36.293 24.1172C35.9906 23.9343 35.3859 23.9273 35.1117 24.1101Z" fill="white"/>
<path d="M9.65156 24.2507C9.23672 24.525 9.1875 24.6867 9.1875 25.7695C9.1875 26.8523 9.23672 27.014 9.65156 27.2882C9.92578 27.4711 10.5586 27.4711 10.8328 27.2882C11.2477 27.014 11.2969 26.8523 11.2969 25.7695C11.2969 24.9257 11.2758 24.757 11.1633 24.5812C10.9453 24.2578 10.6781 24.1172 10.2422 24.1172C9.98203 24.1172 9.79219 24.1593 9.65156 24.2507Z" fill="white"/>
<path d="M18.0891 24.2507C17.6742 24.525 17.625 24.6867 17.625 25.7695C17.625 26.8523 17.6742 27.014 18.0891 27.2882C18.3633 27.4711 18.9961 27.4711 19.2703 27.2882C19.6852 27.014 19.7344 26.8523 19.7344 25.7695C19.7344 24.9257 19.7133 24.757 19.6008 24.5812C19.3828 24.2578 19.1156 24.1172 18.6797 24.1172C18.4195 24.1172 18.2297 24.1593 18.0891 24.2507Z" fill="white"/>
<path d="M22.3078 24.2508C21.893 24.525 21.8438 24.6867 21.8438 25.7695C21.8438 26.6133 21.8648 26.782 21.9773 26.9578C22.1953 27.2812 22.4625 27.4219 22.8984 27.4219C23.3344 27.4219 23.6016 27.2812 23.8195 26.9578C23.932 26.782 23.9531 26.6133 23.9531 25.7695C23.9531 24.9258 23.932 24.757 23.8195 24.5813C23.6016 24.2578 23.3344 24.1172 22.8984 24.1172C22.6383 24.1172 22.4484 24.1594 22.3078 24.2508Z" fill="white"/>
<path d="M26.5266 24.2508C26.1117 24.525 26.0625 24.6867 26.0625 25.7695C26.0625 26.6133 26.0836 26.782 26.1961 26.9578C26.4141 27.2812 26.6812 27.4219 27.1172 27.4219C27.5531 27.4219 27.8203 27.2812 28.0383 26.9578C28.1508 26.782 28.1719 26.6133 28.1719 25.7695C28.1719 24.9258 28.1508 24.757 28.0383 24.5813C27.8203 24.2578 27.5531 24.1172 27.1172 24.1172C26.857 24.1172 26.6672 24.1594 26.5266 24.2508Z" fill="white"/>
</g>
<defs>
<clipPath id="clip0_2895_202521">
<rect width="36" height="36" fill="white" transform="translate(0.75)"/>
</clipPath>
</defs>
</svg>
