<svg width="37" height="36" viewBox="0 0 37 36" fill="none" xmlns="http://www.w3.org/2000/svg">
<g clip-path="url(#clip0_2895_202593)">
<path d="M16.8164 0.0984421C15.8883 0.393753 15.2484 0.99844 14.9461 1.86329C14.8758 2.07422 14.7281 2.71407 14.6297 3.29766L14.4398 4.35235L14.0109 4.50703C13.7719 4.59141 13.2586 4.80235 12.8648 4.9711L12.1477 5.2875L11.3531 4.73203C10.2703 3.97969 10.1297 3.89532 9.65156 3.76172C9.34922 3.67031 9.06797 3.64922 8.63203 3.67031C7.64766 3.71954 7.35234 3.90235 5.97422 5.2875C4.62422 6.65157 4.47656 6.89766 4.42031 7.88203C4.39922 8.325 4.42031 8.59922 4.51172 8.90157C4.64531 9.37969 4.72969 9.52032 5.48203 10.6031L6.0375 11.3977L5.72109 12.1148C5.55234 12.5086 5.34141 13.0219 5.25703 13.2609L5.10234 13.6898L4.04766 13.8797C3.46406 13.9781 2.82422 14.1258 2.61328 14.1961C1.86094 14.4633 1.34062 14.9414 0.975 15.7289L0.785156 16.1367V18V19.8633L0.975 20.2711C1.34062 21.0586 1.86094 21.5367 2.61328 21.8039C2.82422 21.8742 3.46406 22.0219 4.04766 22.1203L5.10234 22.3102L5.25703 22.7391C5.34141 22.9781 5.55234 23.4914 5.72109 23.8852L6.0375 24.6023L5.48203 25.3969C4.72969 26.4797 4.64531 26.6203 4.51172 27.0984C4.42031 27.4008 4.39922 27.682 4.42031 28.118C4.46953 29.1023 4.65234 29.3977 6.0375 30.7758C7.40156 32.1258 7.64766 32.2734 8.63203 32.3297C9.075 32.3508 9.34922 32.3297 9.65156 32.2383C10.1297 32.1047 10.2703 32.0203 11.3531 31.268L12.1477 30.7125L12.8648 31.0289C13.2586 31.1977 13.7719 31.4086 14.0109 31.493L14.4398 31.6477L14.5594 32.3648C14.7984 33.75 14.9461 34.2844 15.2273 34.7203C15.5367 35.1914 15.9023 35.5008 16.4789 35.775L16.8867 35.9648H18.75H20.6133L21.0844 35.7398C21.9773 35.318 22.6031 34.4672 22.6664 33.5742C22.7086 33.0258 22.5187 32.7094 22.0617 32.5617C21.7875 32.4773 21.7242 32.4773 21.4289 32.5969C21.0984 32.7375 21.0633 32.7867 20.7398 33.5039C20.4797 34.0805 20.0367 34.207 18.4195 34.1578C17.6109 34.1367 17.407 34.1086 17.2102 33.9961C16.7812 33.743 16.718 33.5883 16.4578 32.1258C16.1766 30.5367 16.1273 30.3539 15.9023 30.1711C15.8039 30.1008 15.368 29.925 14.932 29.7844C14.4891 29.6438 13.7086 29.3203 13.2023 29.0742C12.6891 28.8211 12.1898 28.6172 12.1055 28.6172C11.8242 28.6172 11.6344 28.7227 10.5516 29.482C9.34922 30.3258 9.13125 30.4453 8.84297 30.4453C8.45625 30.4453 8.24531 30.3047 7.38047 29.4469C6.49453 28.568 6.30469 28.3008 6.30469 27.9141C6.30469 27.6117 6.41719 27.4078 7.26797 26.1984C8.02031 25.1227 8.13281 24.9258 8.13281 24.6586C8.13281 24.5742 7.92891 24.082 7.68281 23.5547C7.42969 23.0344 7.11328 22.2539 6.97266 21.832C6.67734 20.9461 6.58594 20.7844 6.31875 20.6438C6.21328 20.5945 5.53125 20.4469 4.79297 20.3203C4.06172 20.1938 3.34453 20.0391 3.21094 19.9758C2.66953 19.7227 2.54297 19.2586 2.59219 17.6695C2.61328 16.8609 2.64141 16.657 2.75391 16.4602C3.00703 16.0313 3.16172 15.968 4.62422 15.7078C6.15703 15.4406 6.375 15.3773 6.54375 15.1945C6.61406 15.1172 6.78984 14.6883 6.94453 14.2242C7.09922 13.7672 7.42969 12.9656 7.68281 12.4453C7.92891 11.918 8.13281 11.4258 8.13281 11.3414C8.13281 11.0742 8.02031 10.8773 7.26797 9.80157C6.42422 8.59922 6.30469 8.38125 6.30469 8.09297C6.30469 7.70625 6.44531 7.49532 7.30312 6.63047C8.18203 5.74453 8.44922 5.55469 8.83594 5.55469C9.13828 5.55469 9.34219 5.66719 10.5516 6.51797C11.6273 7.27032 11.8242 7.38281 12.0914 7.38281C12.1758 7.38281 12.675 7.17891 13.1953 6.92578C13.7227 6.67969 14.4961 6.35625 14.925 6.22266C15.7969 5.93438 15.9656 5.84297 16.1062 5.56875C16.1555 5.46328 16.3031 4.77422 16.4297 4.04297C16.5562 3.30469 16.7109 2.59454 16.7742 2.46094C17.0273 1.91953 17.4914 1.79297 19.0805 1.84219C19.8891 1.86329 20.093 1.89141 20.2898 2.00391C20.7188 2.25703 20.782 2.41172 21.0422 3.87422C21.3234 5.46328 21.3727 5.6461 21.5977 5.82891C21.6961 5.89922 22.132 6.075 22.568 6.21563C23.0109 6.35625 23.7914 6.67969 24.2977 6.92578C24.8109 7.17891 25.3102 7.38281 25.3945 7.38281C25.6758 7.38281 25.8656 7.27735 26.9484 6.51797C28.1578 5.66719 28.3617 5.55469 28.6641 5.55469C29.0508 5.55469 29.318 5.74453 30.1969 6.63047C31.0547 7.49532 31.1953 7.70625 31.1953 8.09297C31.1953 8.38125 31.0758 8.59922 30.232 9.80157C29.4727 10.8844 29.3672 11.0742 29.3672 11.3555C29.3672 11.4398 29.5711 11.9391 29.8242 12.4523C30.0703 12.9727 30.3937 13.7391 30.5273 14.168C30.8156 15.0469 30.907 15.2156 31.1812 15.3492C31.2867 15.4055 31.9758 15.5531 32.707 15.6797C33.4453 15.8063 34.1555 15.9609 34.2891 16.0242C34.8305 16.2773 34.957 16.7484 34.9078 18.3305C34.8727 19.6313 34.7883 19.7789 33.9797 20.1094C33.607 20.2641 33.5297 20.3273 33.3891 20.6156C33.2625 20.8617 33.2344 21.0023 33.2766 21.1992C33.5297 22.5422 35.7234 21.9516 36.4898 20.3344L36.7148 19.8633V18V16.1367L36.4898 15.6656C36.3633 15.3914 36.1172 15.0398 35.9273 14.85C35.407 14.3297 34.9641 14.1539 33.593 13.9008L32.3977 13.6898L32.243 13.2609C32.1586 13.0219 31.9477 12.5086 31.7789 12.1148L31.4625 11.3977L32.0109 10.6031C33.0023 9.18985 33.1289 8.85938 33.0797 7.88203C33.0305 6.89766 32.8477 6.60235 31.4625 5.22422C30.0984 3.87422 29.8523 3.72657 28.868 3.67031C28.425 3.64922 28.1508 3.67031 27.8484 3.76172C27.3703 3.89532 27.2297 3.97969 26.1469 4.73203L25.3523 5.2875L24.6352 4.9711C24.2414 4.80235 23.7281 4.59141 23.4891 4.50703L23.0602 4.35235L22.8703 3.29766C22.7719 2.71407 22.6242 2.07422 22.5539 1.86329C22.2867 1.11094 21.8086 0.59063 21.0211 0.225002C20.6133 0.0351601 20.6062 0.0351601 18.8555 0.0210953C17.5688 0.0070343 17.0203 0.0281296 16.8164 0.0984421Z" fill="white"/>
<path d="M17.9414 9.07735C17.3226 9.12657 17.0484 9.23204 16.7039 9.57657C16.2117 10.0758 16.0499 10.9477 16.3312 11.5875C16.4156 11.7774 16.964 12.4031 17.8781 13.3453C18.6515 14.1469 19.3476 14.8922 19.4179 14.9977C19.5726 15.2438 19.5867 15.8484 19.432 16.1367C19.3757 16.2563 18.8062 16.8609 18.1734 17.4867C16.9007 18.7383 16.732 18.8367 16.1062 18.7383C15.7757 18.6891 15.7124 18.6399 14.1445 17.0859C12.3937 15.3492 12.3164 15.3 11.5781 15.307C11.3671 15.3141 11.0578 15.3703 10.889 15.4336C10.4812 15.6024 10.0031 16.1438 9.89057 16.5727C9.77807 17.0438 9.79213 18.6117 9.92573 19.3711C10.5023 22.6617 13.0406 25.425 16.2539 26.2688C17.0203 26.4727 17.4351 26.5149 18.8554 26.5711C21.0281 26.6555 21.1335 26.7117 23.5945 29.2641C27.7078 33.518 28.0664 33.8695 28.3265 33.9188C29.0929 34.0594 29.6695 33.4336 29.4445 32.7094C29.3882 32.5125 28.6359 31.6969 26.2523 29.25C24.5437 27.4922 22.9828 25.9313 22.7929 25.7906C22.3218 25.432 21.6328 25.0805 21.0351 24.8906C20.6203 24.757 20.3039 24.7219 19.0664 24.6797C18.082 24.6445 17.414 24.5883 17.0624 24.5039C15.0234 24.0328 13.3359 22.6969 12.4218 20.8477C12.007 20.0109 11.8101 19.3219 11.7257 18.4149C11.6062 17.1844 11.5429 17.1703 13.0828 18.7313C14.264 19.9406 14.482 20.1305 14.8968 20.3274C15.5296 20.6156 16.2257 20.7211 16.8234 20.6227C17.6671 20.475 18.0539 20.2359 19.2914 19.0617C20.4445 17.9649 20.782 17.5992 21.0421 17.1563C21.5695 16.2492 21.5835 15.1383 21.0914 14.1328C20.8734 13.6828 20.6624 13.4367 19.5374 12.2906L18.2367 10.9688H18.8273C21.021 10.9758 23.2781 12.3188 24.4523 14.3156C25.1906 15.5672 25.3734 16.3406 25.3945 18.1758C25.4015 18.907 25.4296 19.6524 25.4578 19.8281C25.5984 20.7211 26.0624 21.7336 26.6531 22.4367C27.2789 23.182 32.8124 28.8563 33.0515 28.9828C33.6632 29.3344 34.4296 28.8774 34.4296 28.1602C34.4226 28.0055 34.3874 27.8086 34.3382 27.7242C34.289 27.6399 32.8546 26.1281 31.139 24.3633C29.1843 22.3453 27.9468 21.0164 27.8203 20.7914C27.3984 20.0602 27.321 19.6594 27.2999 18.0703C27.2789 16.5305 27.1945 15.975 26.857 14.9766C25.9781 12.4031 23.9671 10.3852 21.3867 9.50626C20.332 9.14063 19.0734 8.98595 17.9414 9.07735Z" fill="white"/>
</g>
<defs>
<clipPath id="clip0_2895_202593">
<rect width="36" height="36" fill="white" transform="translate(0.75)"/>
</clipPath>
</defs>
</svg>
