<svg width="48" height="34" viewBox="0 0 48 34" fill="none" xmlns="http://www.w3.org/2000/svg">
<path d="M8.88221 0.110241C6.6967 0.530533 4.95016 1.40847 3.40909 2.87482C1.70925 4.49061 0.644509 6.43328 0.224218 8.71219C0.00940285 9.84231 0.0747814 12.1306 0.345636 13.1579C1.41037 17.1554 4.38043 20.0694 8.34984 20.994C8.78881 21.0968 9.3025 21.1808 9.49864 21.1808C10.0777 21.1808 10.1057 21.2369 10.031 22.1708C9.87223 24.1042 9.14372 26.0749 7.74275 28.3351C7.2851 29.0823 7.18237 29.3158 7.21973 29.5306C7.27576 29.8015 8.86353 31.5106 10.498 33.0517C11.1985 33.7055 11.3292 33.7896 11.6374 33.7896C11.9643 33.7896 12.0764 33.7055 13.2999 32.454C17.8204 27.8494 20.6223 21.7599 21.2948 15.0819C21.4536 13.4755 21.3508 10.0945 21.1173 8.94569C20.3235 5.15373 18.0819 2.23972 14.841 0.820065C13.6081 0.278358 12.5341 0.054203 10.965 0.0168419C10.0217 -0.00183487 9.33986 0.0261841 8.88221 0.110241ZM12.9263 1.84744C16.0739 2.68803 18.5676 5.31251 19.4082 8.68418C19.707 9.86099 19.7818 10.6922 19.7911 12.5882C19.7911 16.6884 18.9692 20.3216 17.1853 24.0295C15.8777 26.7567 14.4487 28.8395 12.2445 31.2211L11.6094 31.9123L10.3299 30.6327L9.05033 29.3438L9.65741 28.2791C11.0584 25.8227 11.8242 22.9367 11.5814 21.0034C11.432 19.7985 11.3666 19.7425 10.1618 19.6491C6.27641 19.3409 3.12889 16.8191 1.9801 13.0832C1.75594 12.336 1.72793 12.1212 1.72793 10.6736C1.71859 9.29126 1.7466 8.99239 1.9334 8.34794C2.38171 6.7882 3.07286 5.53666 4.09089 4.44391C5.36111 3.07096 7.18237 2.0716 9.09702 1.69801C10.0403 1.51121 11.9643 1.58593 12.9263 1.84744Z" fill="url(#paint0_linear_2895_203261)"/>
<path d="M35.3605 0.119766C33.9502 0.390621 32.4932 0.979031 31.279 1.76357C30.0182 2.58547 28.4211 4.39739 27.6926 5.84506C26.5157 8.16133 26.2823 11.2528 27.0855 13.8493C28.2156 17.5385 31.6713 20.5366 35.4353 21.0876C36.7802 21.2837 36.6401 21.1623 36.5747 22.1056C36.4346 23.9923 35.6314 26.1871 34.3051 28.2979C33.4739 29.6055 33.3992 29.4187 35.7715 31.791C38.2839 34.2941 38.0317 34.2287 39.5167 32.781C43.5889 28.8116 46.4562 23.3105 47.5303 17.3984C47.7638 16.0908 47.9039 14.2882 47.9039 12.5043C47.9039 9.59032 47.605 7.98388 46.6897 6.07856C45.2701 3.08982 42.8977 1.10044 39.7969 0.287884C38.6388 -0.0109901 36.5 -0.095047 35.3605 0.119766ZM39.4233 1.82895C42.7857 2.72557 45.214 5.40609 46.092 9.19805C46.2974 10.0853 46.3815 13.7652 46.2227 15.2035C45.8678 18.5939 44.9805 21.5453 43.4114 24.6461C42.272 26.9063 40.9924 28.7556 39.1245 30.857L38.1625 31.9405L36.8642 30.6422L35.5567 29.3347L35.9396 28.7182C36.8549 27.2145 37.6301 25.3092 37.957 23.6934C38.1625 22.7127 38.1998 20.8168 38.0224 20.3124C37.8449 19.8361 37.6208 19.7147 36.6961 19.6493C33.5299 19.3971 30.7654 17.6319 29.271 14.9047C28.4771 13.4477 28.1409 11.9159 28.2249 10.132C28.4211 5.86374 31.662 2.32396 35.9956 1.63282C36.6681 1.52074 38.7135 1.64215 39.4233 1.82895Z" fill="url(#paint1_linear_2895_203261)"/>
<defs>
<linearGradient id="paint0_linear_2895_203261" x1="10.7337" y1="33.7896" x2="30.4109" y2="27.1694" gradientUnits="userSpaceOnUse">
<stop stop-color="#FB9A3E"/>
<stop offset="1" stop-color="#EE132F"/>
</linearGradient>
<linearGradient id="paint1_linear_2895_203261" x1="37.2585" y1="33.7881" x2="56.9484" y2="27.1608" gradientUnits="userSpaceOnUse">
<stop stop-color="#FB9A3E"/>
<stop offset="1" stop-color="#EE132F"/>
</linearGradient>
</defs>
</svg>
