<svg width="19" height="18" viewBox="0 0 19 18" fill="none" xmlns="http://www.w3.org/2000/svg">
<path d="M7.50001 9.00005H6.00001C5.80109 9.00005 5.61033 9.07907 5.46968 9.21972C5.32902 9.36037 5.25001 9.55114 5.25001 9.75005C5.25001 9.94896 5.32902 10.1397 5.46968 10.2804C5.61033 10.421 5.80109 10.5001 6.00001 10.5001H7.50001C7.69892 10.5001 7.88968 10.421 8.03034 10.2804C8.17099 10.1397 8.25001 9.94896 8.25001 9.75005C8.25001 9.55114 8.17099 9.36037 8.03034 9.21972C7.88968 9.07907 7.69892 9.00005 7.50001 9.00005ZM6.75001 7.50005H9.75001C9.94892 7.50005 10.1397 7.42103 10.2803 7.28038C10.421 7.13973 10.5 6.94896 10.5 6.75005C10.5 6.55114 10.421 6.36037 10.2803 6.21972C10.1397 6.07907 9.94892 6.00005 9.75001 6.00005H6.75001C6.55109 6.00005 6.36033 6.07907 6.21968 6.21972C6.07902 6.36037 6.00001 6.55114 6.00001 6.75005C6.00001 6.94896 6.07902 7.13973 6.21968 7.28038C6.36033 7.42103 6.55109 7.50005 6.75001 7.50005ZM7.50001 12.0001H6.00001C5.80109 12.0001 5.61033 12.0791 5.46968 12.2197C5.32902 12.3604 5.25001 12.5511 5.25001 12.7501C5.25001 12.949 5.32902 13.1397 5.46968 13.2804C5.61033 13.421 5.80109 13.5001 6.00001 13.5001H7.50001C7.69892 13.5001 7.88968 13.421 8.03034 13.2804C8.17099 13.1397 8.25001 12.949 8.25001 12.7501C8.25001 12.5511 8.17099 12.3604 8.03034 12.2197C7.88968 12.0791 7.69892 12.0001 7.50001 12.0001ZM16.5 9.00005H14.25V2.25005C14.2505 2.11789 14.2161 1.98794 14.1503 1.87336C14.0844 1.75878 13.9895 1.66363 13.875 1.59755C13.761 1.53173 13.6317 1.49707 13.5 1.49707C13.3684 1.49707 13.239 1.53173 13.125 1.59755L10.875 2.88755L8.62501 1.59755C8.51099 1.53173 8.38166 1.49707 8.25001 1.49707C8.11835 1.49707 7.98902 1.53173 7.87501 1.59755L5.62501 2.88755L3.37501 1.59755C3.26099 1.53173 3.13166 1.49707 3.00001 1.49707C2.86835 1.49707 2.73902 1.53173 2.62501 1.59755C2.51055 1.66363 2.41559 1.75878 2.34974 1.87336C2.28389 1.98794 2.24948 2.11789 2.25001 2.25005V14.2501C2.25001 14.8468 2.48706 15.4191 2.90902 15.841C3.33097 16.263 3.90327 16.5001 4.50001 16.5001H15C15.5967 16.5001 16.169 16.263 16.591 15.841C17.013 15.4191 17.25 14.8468 17.25 14.2501V9.75005C17.25 9.55114 17.171 9.36037 17.0303 9.21972C16.8897 9.07907 16.6989 9.00005 16.5 9.00005ZM4.50001 15.0001C4.30109 15.0001 4.11033 14.921 3.96968 14.7804C3.82902 14.6397 3.75001 14.449 3.75001 14.2501V3.54755L5.25001 4.40255C5.36576 4.46301 5.49441 4.49459 5.62501 4.49459C5.7556 4.49459 5.88425 4.46301 6.00001 4.40255L8.25001 3.11255L10.5 4.40255C10.6158 4.46301 10.7444 4.49459 10.875 4.49459C11.0056 4.49459 11.1343 4.46301 11.25 4.40255L12.75 3.54755V14.2501C12.752 14.5059 12.7977 14.7595 12.885 15.0001H4.50001ZM15.75 14.2501C15.75 14.449 15.671 14.6397 15.5303 14.7804C15.3897 14.921 15.1989 15.0001 15 15.0001C14.8011 15.0001 14.6103 14.921 14.4697 14.7804C14.329 14.6397 14.25 14.449 14.25 14.2501V10.5001H15.75V14.2501ZM10.92 12.1276C10.8782 12.0992 10.8328 12.0765 10.785 12.0601C10.7403 12.0372 10.6922 12.022 10.6425 12.0151C10.522 11.9909 10.3974 11.9968 10.2797 12.0321C10.162 12.0674 10.0548 12.1311 9.96751 12.2176C9.83046 12.3613 9.75277 12.5515 9.75001 12.7501C9.74881 12.8476 9.76664 12.9444 9.80251 13.0351C9.84327 13.1262 9.89905 13.2099 9.96751 13.2826C10.0404 13.3488 10.1241 13.4021 10.215 13.4401C10.3048 13.4797 10.4019 13.5002 10.5 13.5002C10.5982 13.5002 10.6952 13.4797 10.785 13.4401C10.8759 13.4021 10.9596 13.3488 11.0325 13.2826C11.102 13.2125 11.157 13.1294 11.1943 13.038C11.2317 12.9466 11.2506 12.8488 11.25 12.7501C11.2472 12.5515 11.1696 12.3613 11.0325 12.2176C10.9969 12.1853 10.9593 12.1552 10.92 12.1276ZM11.025 9.21755C10.9374 9.13227 10.8303 9.06968 10.713 9.03524C10.5958 9.0008 10.4718 8.99555 10.352 9.01995C10.2323 9.04435 10.1203 9.09766 10.0258 9.17524C9.93132 9.25281 9.85724 9.35231 9.81001 9.46505C9.76333 9.57868 9.74527 9.70203 9.75742 9.82426C9.76957 9.9465 9.81156 10.0639 9.8797 10.1661C9.94784 10.2683 10.04 10.3522 10.1482 10.4104C10.2564 10.4687 10.3772 10.4994 10.5 10.5001C10.6989 10.5001 10.8897 10.421 11.0303 10.2804C11.171 10.1397 11.25 9.94896 11.25 9.75005C11.2488 9.65204 11.2284 9.55522 11.19 9.46505C11.1539 9.37142 11.0975 9.28692 11.025 9.21755Z" fill="#3A3C3F"/>
</svg>
