<svg width="19" height="18" viewBox="0 0 19 18" fill="none" xmlns="http://www.w3.org/2000/svg">
<path fill-rule="evenodd" clip-rule="evenodd" d="M4.5 3C4.08579 3 3.75 3.33579 3.75 3.75V14.25C3.75 14.6642 4.08579 15 4.5 15H15C15.4142 15 15.75 14.6642 15.75 14.25V3.75C15.75 3.33579 15.4142 3 15 3H4.5ZM2.25 3.75C2.25 2.50736 3.25736 1.5 4.5 1.5H15C16.2426 1.5 17.25 2.50736 17.25 3.75V14.25C17.25 15.4926 16.2426 16.5 15 16.5H4.5C3.25736 16.5 2.25 15.4926 2.25 14.25V3.75Z" fill="#3A3C3F"/>
<path fill-rule="evenodd" clip-rule="evenodd" d="M2.25 6.75C2.25 6.33579 2.58579 6 3 6H16.5C16.9142 6 17.25 6.33579 17.25 6.75C17.25 7.16421 16.9142 7.5 16.5 7.5H3C2.58579 7.5 2.25 7.16421 2.25 6.75Z" fill="#3A3C3F"/>
<path fill-rule="evenodd" clip-rule="evenodd" d="M7.5 6C7.91421 6 8.25 6.33579 8.25 6.75V15.75C8.25 16.1642 7.91421 16.5 7.5 16.5C7.08579 16.5 6.75 16.1642 6.75 15.75V6.75C6.75 6.33579 7.08579 6 7.5 6Z" fill="#3A3C3F"/>
</svg>
