<svg width="16" height="16" viewBox="0 0 16 16" fill="none" xmlns="http://www.w3.org/2000/svg">
<mask id="path-1-inside-1_5502_173338" fill="white">
<path d="M3.99378 9.87647C3.89528 9.87645 3.79774 9.89583 3.70674 9.93351C3.61573 9.97119 3.53304 10.0264 3.46339 10.0961C3.39374 10.1657 3.3385 10.2484 3.30082 10.3394C3.26314 10.4304 3.24375 10.528 3.24378 10.6265V11.9632C2.27706 10.8699 1.74356 9.46085 1.74378 8.00147C1.74364 7.78091 1.75685 7.56054 1.78333 7.34156C1.79547 7.24364 1.78817 7.14429 1.76184 7.0492C1.73552 6.9541 1.69069 6.86514 1.62992 6.7874C1.56915 6.70967 1.49364 6.64469 1.40771 6.59619C1.32178 6.54769 1.22713 6.51662 1.12917 6.50477C1.03122 6.49292 0.931886 6.50051 0.83687 6.52711C0.741855 6.55372 0.653024 6.59881 0.575468 6.65981C0.497911 6.72081 0.433155 6.79652 0.384909 6.88259C0.336663 6.96866 0.305877 7.0634 0.294314 7.16139C0.260341 7.44013 0.243465 7.72068 0.243779 8.00147C0.244798 9.79109 0.887996 11.5209 2.05643 12.8765H0.993779C0.794866 12.8765 0.604101 12.9555 0.463449 13.0961C0.322796 13.2368 0.243779 13.4276 0.243779 13.6265C0.243779 13.8254 0.322796 14.0162 0.463449 14.1568C0.604101 14.2975 0.794866 14.3765 0.993779 14.3765H3.99378C4.11108 14.375 4.22633 14.3455 4.32993 14.2905C4.43353 14.2355 4.52248 14.1565 4.58938 14.0601C4.59812 14.0486 4.60929 14.04 4.61743 14.0279C4.62243 14.0204 4.62256 14.0116 4.62723 14.004C4.66297 13.9436 4.68975 13.8783 4.70673 13.8102C4.71783 13.772 4.72572 13.7329 4.7303 13.6933C4.73245 13.6702 4.7438 13.6502 4.7438 13.6265V10.6265C4.74383 10.528 4.72445 10.4305 4.68677 10.3394C4.64909 10.2484 4.59384 10.1657 4.52419 10.0961C4.45454 10.0264 4.37184 9.97119 4.28083 9.93351C4.18982 9.89583 4.09228 9.87645 3.99378 9.87647V9.87647ZM5.11878 3.50147H3.78193C4.87528 2.53481 6.28437 2.00131 7.74378 2.00147C7.96424 2.00095 8.18451 2.01416 8.40332 2.04103C8.50114 2.05291 8.60034 2.0454 8.69526 2.01894C8.79018 1.99249 8.87895 1.94759 8.95652 1.88682C9.03409 1.82605 9.09893 1.7506 9.14733 1.66477C9.19574 1.57895 9.22677 1.48443 9.23865 1.38661C9.25053 1.28879 9.24302 1.18959 9.21656 1.09467C9.19011 0.999755 9.14521 0.910978 9.08444 0.833411C9.02367 0.755844 8.94822 0.691005 8.8624 0.642597C8.77657 0.594189 8.68205 0.56316 8.58423 0.551282C8.30535 0.517638 8.02468 0.501005 7.74378 0.501475C5.95417 0.502447 4.22434 1.1456 2.86878 2.31399V1.25147C2.86878 1.05256 2.78976 0.861797 2.64911 0.721144C2.50846 0.580492 2.31769 0.501475 2.11878 0.501475C1.91987 0.501475 1.7291 0.580492 1.58845 0.721144C1.4478 0.861797 1.36878 1.05256 1.36878 1.25147V4.25147C1.3735 4.30105 1.38338 4.34999 1.39826 4.39751L1.39844 4.39842C1.41665 4.49071 1.45261 4.57859 1.50432 4.65717L1.51288 4.66985C1.56244 4.74193 1.62455 4.80451 1.69626 4.8546C1.70446 4.8606 1.70853 4.8698 1.71704 4.87552C1.72776 4.88261 1.73989 4.88486 1.75083 4.89136C1.79336 4.91695 1.83843 4.93806 1.88532 4.95436C1.94868 4.9764 2.01475 4.98974 2.0817 4.994C2.0947 4.99469 2.10564 5.0015 2.11878 5.0015H5.11878C5.31769 5.0015 5.50846 4.92248 5.64911 4.78183C5.78976 4.64118 5.86878 4.45041 5.86878 4.2515C5.86878 4.05258 5.78976 3.86182 5.64911 3.72117C5.50846 3.58051 5.31769 3.5015 5.11878 3.5015V3.50147ZM14.0891 11.6045C14.0709 11.5122 14.0349 11.4243 13.9832 11.3457L13.9747 11.3331C13.9251 11.261 13.863 11.1984 13.7912 11.1483C13.783 11.1423 13.779 11.1331 13.7705 11.1274C13.7624 11.1221 13.7528 11.1219 13.7446 11.1168C13.6494 11.064 13.5452 11.0295 13.4373 11.0153C13.4135 11.013 13.3931 11.0014 13.3688 11.0014H10.3688C10.1699 11.0014 9.9791 11.0805 9.83845 11.2211C9.6978 11.3618 9.61878 11.5525 9.61878 11.7514C9.61878 11.9503 9.6978 12.1411 9.83845 12.2818C9.9791 12.4224 10.1699 12.5014 10.3688 12.5014H11.7056C10.6123 13.4681 9.20317 14.0016 7.74378 14.0014C7.52331 14.0017 7.30303 13.9883 7.08423 13.9612C6.88668 13.9372 6.68768 13.9926 6.53103 14.1154C6.37438 14.2381 6.27289 14.418 6.2489 14.6156C6.22491 14.8131 6.28038 15.0121 6.40311 15.1688C6.52584 15.3254 6.70577 15.4269 6.90332 15.4509C7.18221 15.4845 7.46287 15.5014 7.74378 15.5014C9.53338 15.5005 11.2632 14.8573 12.6188 13.6889V14.7515C12.6188 14.9504 12.6978 15.1412 12.8385 15.2818C12.9791 15.4225 13.1699 15.5015 13.3688 15.5015C13.5677 15.5015 13.7585 15.4225 13.8991 15.2818C14.0398 15.1412 14.1188 14.9504 14.1188 14.7515V11.7515C14.1141 11.7019 14.1042 11.653 14.0893 11.6054L14.0891 11.6045ZM14.4938 3.12647C14.6927 3.12647 14.8835 3.04746 15.0241 2.9068C15.1648 2.76615 15.2438 2.57539 15.2438 2.37647C15.2438 2.17756 15.1648 1.9868 15.0241 1.84614C14.8835 1.70549 14.6927 1.62647 14.4938 1.62647H11.4938C11.445 1.63118 11.3967 1.64091 11.3499 1.6555L11.3449 1.6565C11.2538 1.67473 11.1671 1.71025 11.0894 1.76115L11.0747 1.77108C11.003 1.82056 10.9406 1.88249 10.8907 1.95392C10.8848 1.96202 10.8757 1.966 10.8701 1.97438C10.8648 1.98243 10.8646 1.99196 10.8596 2.00015C10.806 2.09584 10.7713 2.2009 10.7573 2.30964C10.7551 2.33281 10.7438 2.35277 10.7438 2.37647V5.37647C10.7438 5.57539 10.8228 5.76615 10.9634 5.9068C11.1041 6.04746 11.2949 6.12647 11.4938 6.12647C11.6927 6.12647 11.8835 6.04746 12.0241 5.9068C12.1648 5.76615 12.2438 5.57539 12.2438 5.37647V4.03931C13.2104 5.13279 13.7439 6.54196 13.7438 8.00144C13.7439 8.22201 13.7307 8.44238 13.7042 8.66135C13.6805 8.85877 13.736 9.05755 13.8586 9.21409C13.9812 9.37062 14.1609 9.47212 14.3583 9.49631C14.3887 9.49983 14.4192 9.50155 14.4498 9.50144C14.633 9.5012 14.8097 9.43395 14.9466 9.31238C15.0836 9.19082 15.1713 9.02333 15.1932 8.84153C15.2272 8.5628 15.2441 8.28226 15.2438 8.00147C15.2427 6.21184 14.5995 4.482 13.431 3.12647H14.4938Z"/>
</mask>
<path d="M3.99378 9.87647C3.89528 9.87645 3.79774 9.89583 3.70674 9.93351C3.61573 9.97119 3.53304 10.0264 3.46339 10.0961C3.39374 10.1657 3.3385 10.2484 3.30082 10.3394C3.26314 10.4304 3.24375 10.528 3.24378 10.6265V11.9632C2.27706 10.8699 1.74356 9.46085 1.74378 8.00147C1.74364 7.78091 1.75685 7.56054 1.78333 7.34156C1.79547 7.24364 1.78817 7.14429 1.76184 7.0492C1.73552 6.9541 1.69069 6.86514 1.62992 6.7874C1.56915 6.70967 1.49364 6.64469 1.40771 6.59619C1.32178 6.54769 1.22713 6.51662 1.12917 6.50477C1.03122 6.49292 0.931886 6.50051 0.83687 6.52711C0.741855 6.55372 0.653024 6.59881 0.575468 6.65981C0.497911 6.72081 0.433155 6.79652 0.384909 6.88259C0.336663 6.96866 0.305877 7.0634 0.294314 7.16139C0.260341 7.44013 0.243465 7.72068 0.243779 8.00147C0.244798 9.79109 0.887996 11.5209 2.05643 12.8765H0.993779C0.794866 12.8765 0.604101 12.9555 0.463449 13.0961C0.322796 13.2368 0.243779 13.4276 0.243779 13.6265C0.243779 13.8254 0.322796 14.0162 0.463449 14.1568C0.604101 14.2975 0.794866 14.3765 0.993779 14.3765H3.99378C4.11108 14.375 4.22633 14.3455 4.32993 14.2905C4.43353 14.2355 4.52248 14.1565 4.58938 14.0601C4.59812 14.0486 4.60929 14.04 4.61743 14.0279C4.62243 14.0204 4.62256 14.0116 4.62723 14.004C4.66297 13.9436 4.68975 13.8783 4.70673 13.8102C4.71783 13.772 4.72572 13.7329 4.7303 13.6933C4.73245 13.6702 4.7438 13.6502 4.7438 13.6265V10.6265C4.74383 10.528 4.72445 10.4305 4.68677 10.3394C4.64909 10.2484 4.59384 10.1657 4.52419 10.0961C4.45454 10.0264 4.37184 9.97119 4.28083 9.93351C4.18982 9.89583 4.09228 9.87645 3.99378 9.87647V9.87647ZM5.11878 3.50147H3.78193C4.87528 2.53481 6.28437 2.00131 7.74378 2.00147C7.96424 2.00095 8.18451 2.01416 8.40332 2.04103C8.50114 2.05291 8.60034 2.0454 8.69526 2.01894C8.79018 1.99249 8.87895 1.94759 8.95652 1.88682C9.03409 1.82605 9.09893 1.7506 9.14733 1.66477C9.19574 1.57895 9.22677 1.48443 9.23865 1.38661C9.25053 1.28879 9.24302 1.18959 9.21656 1.09467C9.19011 0.999755 9.14521 0.910978 9.08444 0.833411C9.02367 0.755844 8.94822 0.691005 8.8624 0.642597C8.77657 0.594189 8.68205 0.56316 8.58423 0.551282C8.30535 0.517638 8.02468 0.501005 7.74378 0.501475C5.95417 0.502447 4.22434 1.1456 2.86878 2.31399V1.25147C2.86878 1.05256 2.78976 0.861797 2.64911 0.721144C2.50846 0.580492 2.31769 0.501475 2.11878 0.501475C1.91987 0.501475 1.7291 0.580492 1.58845 0.721144C1.4478 0.861797 1.36878 1.05256 1.36878 1.25147V4.25147C1.3735 4.30105 1.38338 4.34999 1.39826 4.39751L1.39844 4.39842C1.41665 4.49071 1.45261 4.57859 1.50432 4.65717L1.51288 4.66985C1.56244 4.74193 1.62455 4.80451 1.69626 4.8546C1.70446 4.8606 1.70853 4.8698 1.71704 4.87552C1.72776 4.88261 1.73989 4.88486 1.75083 4.89136C1.79336 4.91695 1.83843 4.93806 1.88532 4.95436C1.94868 4.9764 2.01475 4.98974 2.0817 4.994C2.0947 4.99469 2.10564 5.0015 2.11878 5.0015H5.11878C5.31769 5.0015 5.50846 4.92248 5.64911 4.78183C5.78976 4.64118 5.86878 4.45041 5.86878 4.2515C5.86878 4.05258 5.78976 3.86182 5.64911 3.72117C5.50846 3.58051 5.31769 3.5015 5.11878 3.5015V3.50147ZM14.0891 11.6045C14.0709 11.5122 14.0349 11.4243 13.9832 11.3457L13.9747 11.3331C13.9251 11.261 13.863 11.1984 13.7912 11.1483C13.783 11.1423 13.779 11.1331 13.7705 11.1274C13.7624 11.1221 13.7528 11.1219 13.7446 11.1168C13.6494 11.064 13.5452 11.0295 13.4373 11.0153C13.4135 11.013 13.3931 11.0014 13.3688 11.0014H10.3688C10.1699 11.0014 9.9791 11.0805 9.83845 11.2211C9.6978 11.3618 9.61878 11.5525 9.61878 11.7514C9.61878 11.9503 9.6978 12.1411 9.83845 12.2818C9.9791 12.4224 10.1699 12.5014 10.3688 12.5014H11.7056C10.6123 13.4681 9.20317 14.0016 7.74378 14.0014C7.52331 14.0017 7.30303 13.9883 7.08423 13.9612C6.88668 13.9372 6.68768 13.9926 6.53103 14.1154C6.37438 14.2381 6.27289 14.418 6.2489 14.6156C6.22491 14.8131 6.28038 15.0121 6.40311 15.1688C6.52584 15.3254 6.70577 15.4269 6.90332 15.4509C7.18221 15.4845 7.46287 15.5014 7.74378 15.5014C9.53338 15.5005 11.2632 14.8573 12.6188 13.6889V14.7515C12.6188 14.9504 12.6978 15.1412 12.8385 15.2818C12.9791 15.4225 13.1699 15.5015 13.3688 15.5015C13.5677 15.5015 13.7585 15.4225 13.8991 15.2818C14.0398 15.1412 14.1188 14.9504 14.1188 14.7515V11.7515C14.1141 11.7019 14.1042 11.653 14.0893 11.6054L14.0891 11.6045ZM14.4938 3.12647C14.6927 3.12647 14.8835 3.04746 15.0241 2.9068C15.1648 2.76615 15.2438 2.57539 15.2438 2.37647C15.2438 2.17756 15.1648 1.9868 15.0241 1.84614C14.8835 1.70549 14.6927 1.62647 14.4938 1.62647H11.4938C11.445 1.63118 11.3967 1.64091 11.3499 1.6555L11.3449 1.6565C11.2538 1.67473 11.1671 1.71025 11.0894 1.76115L11.0747 1.77108C11.003 1.82056 10.9406 1.88249 10.8907 1.95392C10.8848 1.96202 10.8757 1.966 10.8701 1.97438C10.8648 1.98243 10.8646 1.99196 10.8596 2.00015C10.806 2.09584 10.7713 2.2009 10.7573 2.30964C10.7551 2.33281 10.7438 2.35277 10.7438 2.37647V5.37647C10.7438 5.57539 10.8228 5.76615 10.9634 5.9068C11.1041 6.04746 11.2949 6.12647 11.4938 6.12647C11.6927 6.12647 11.8835 6.04746 12.0241 5.9068C12.1648 5.76615 12.2438 5.57539 12.2438 5.37647V4.03931C13.2104 5.13279 13.7439 6.54196 13.7438 8.00144C13.7439 8.22201 13.7307 8.44238 13.7042 8.66135C13.6805 8.85877 13.736 9.05755 13.8586 9.21409C13.9812 9.37062 14.1609 9.47212 14.3583 9.49631C14.3887 9.49983 14.4192 9.50155 14.4498 9.50144C14.633 9.5012 14.8097 9.43395 14.9466 9.31238C15.0836 9.19082 15.1713 9.02333 15.1932 8.84153C15.2272 8.5628 15.2441 8.28226 15.2438 8.00147C15.2427 6.21184 14.5995 4.482 13.431 3.12647H14.4938Z" fill="#3A3C3F" stroke="black" stroke-width="2" mask="url(#path-1-inside-1_5502_173338)"/>
</svg>
