<svg width="17" height="16" viewBox="0 0 17 16" fill="none" xmlns="http://www.w3.org/2000/svg">
<path d="M7.41665 8.66671H2.74998C2.57317 8.66671 2.4036 8.73695 2.27858 8.86197C2.15355 8.98699 2.08331 9.15656 2.08331 9.33337V14C2.08331 14.1769 2.15355 14.3464 2.27858 14.4714C2.4036 14.5965 2.57317 14.6667 2.74998 14.6667H7.41665C7.59346 14.6667 7.76303 14.5965 7.88805 14.4714C8.01308 14.3464 8.08331 14.1769 8.08331 14V9.33337C8.08331 9.15656 8.01308 8.98699 7.88805 8.86197C7.76303 8.73695 7.59346 8.66671 7.41665 8.66671ZM6.74998 13.3334H3.41665V10H6.74998V13.3334ZM14.75 1.33337H10.0833C9.9065 1.33337 9.73693 1.40361 9.61191 1.52864C9.48688 1.65366 9.41665 1.82323 9.41665 2.00004V6.66671C9.41665 6.84352 9.48688 7.01309 9.61191 7.13811C9.73693 7.26314 9.9065 7.33337 10.0833 7.33337H14.75C14.9268 7.33337 15.0964 7.26314 15.2214 7.13811C15.3464 7.01309 15.4166 6.84352 15.4166 6.66671V2.00004C15.4166 1.82323 15.3464 1.65366 15.2214 1.52864C15.0964 1.40361 14.9268 1.33337 14.75 1.33337V1.33337ZM14.0833 6.00004H10.75V2.66671H14.0833V6.00004ZM14.75 8.66671H10.0833C9.9065 8.66671 9.73693 8.73695 9.61191 8.86197C9.48688 8.98699 9.41665 9.15656 9.41665 9.33337V14C9.41665 14.1769 9.48688 14.3464 9.61191 14.4714C9.73693 14.5965 9.9065 14.6667 10.0833 14.6667H14.75C14.9268 14.6667 15.0964 14.5965 15.2214 14.4714C15.3464 14.3464 15.4166 14.1769 15.4166 14V9.33337C15.4166 9.15656 15.3464 8.98699 15.2214 8.86197C15.0964 8.73695 14.9268 8.66671 14.75 8.66671ZM14.0833 13.3334H10.75V10H14.0833V13.3334ZM7.41665 1.33337H2.74998C2.57317 1.33337 2.4036 1.40361 2.27858 1.52864C2.15355 1.65366 2.08331 1.82323 2.08331 2.00004V6.66671C2.08331 6.84352 2.15355 7.01309 2.27858 7.13811C2.4036 7.26314 2.57317 7.33337 2.74998 7.33337H7.41665C7.59346 7.33337 7.76303 7.26314 7.88805 7.13811C8.01308 7.01309 8.08331 6.84352 8.08331 6.66671V2.00004C8.08331 1.82323 8.01308 1.65366 7.88805 1.52864C7.76303 1.40361 7.59346 1.33337 7.41665 1.33337V1.33337ZM6.74998 6.00004H3.41665V2.66671H6.74998V6.00004Z" fill="#3A3C3F"/>
</svg>
