<svg width="19" height="18" viewBox="0 0 19 18" fill="none" xmlns="http://www.w3.org/2000/svg">
<path d="M16.74 7.1625L15.3225 6.69L15.99 5.355C16.0577 5.21527 16.0803 5.05798 16.0548 4.90483C16.0293 4.75169 15.9568 4.61024 15.8475 4.5L14.25 2.9025C14.1392 2.79157 13.9964 2.71816 13.8417 2.6926C13.687 2.66704 13.5281 2.69061 13.3875 2.76L12.0525 3.4275L11.58 2.01C11.5301 1.86225 11.4354 1.73372 11.309 1.64231C11.1827 1.55091 11.031 1.50116 10.875 1.5H8.625C8.46777 1.4996 8.31439 1.54862 8.18653 1.64013C8.05868 1.73165 7.96282 1.86104 7.9125 2.01L7.44 3.4275L6.105 2.76C5.96527 2.69234 5.80798 2.66971 5.65483 2.69523C5.50169 2.72075 5.36024 2.79318 5.25 2.9025L3.6525 4.5C3.54157 4.61083 3.46816 4.75363 3.4426 4.90834C3.41704 5.06305 3.44061 5.22189 3.51 5.3625L4.1775 6.6975L2.76 7.17C2.61225 7.2199 2.48372 7.31462 2.39231 7.44098C2.30091 7.56734 2.25116 7.71905 2.25 7.875V10.125C2.2496 10.2822 2.29862 10.4356 2.39013 10.5635C2.48165 10.6913 2.61104 10.7872 2.76 10.8375L4.1775 11.31L3.51 12.645C3.44234 12.7847 3.41971 12.942 3.44523 13.0952C3.47075 13.2483 3.54318 13.3898 3.6525 13.5L5.25 15.0975C5.36083 15.2084 5.50363 15.2818 5.65834 15.3074C5.81305 15.333 5.97189 15.3094 6.1125 15.24L7.4475 14.5725L7.92 15.99C7.97032 16.139 8.06618 16.2684 8.19403 16.3599C8.32189 16.4514 8.47527 16.5004 8.6325 16.5H10.8825C11.0397 16.5004 11.1931 16.4514 11.321 16.3599C11.4488 16.2684 11.5447 16.139 11.595 15.99L12.0675 14.5725L13.4025 15.24C13.5413 15.306 13.6971 15.3277 13.8487 15.3022C14.0003 15.2767 14.1404 15.2052 14.25 15.0975L15.8475 13.5C15.9584 13.3892 16.0318 13.2464 16.0574 13.0917C16.083 12.937 16.0594 12.7781 15.99 12.6375L15.3225 11.3025L16.74 10.83C16.8878 10.7801 17.0163 10.6854 17.1077 10.559C17.1991 10.4327 17.2488 10.281 17.25 10.125V7.875C17.2504 7.71777 17.2014 7.56439 17.1099 7.43653C17.0184 7.30868 16.889 7.21282 16.74 7.1625ZM15.75 9.585L14.85 9.885C14.643 9.95213 14.4532 10.0635 14.2935 10.2113C14.1339 10.3592 14.0084 10.54 13.9256 10.7412C13.8428 10.9424 13.8048 11.1592 13.8142 11.3766C13.8236 11.594 13.8802 11.8067 13.98 12L14.4075 12.855L13.5825 13.68L12.75 13.23C12.5577 13.1342 12.347 13.0808 12.1322 13.0735C11.9175 13.0662 11.7037 13.1051 11.5052 13.1875C11.3068 13.27 11.1285 13.3942 10.9822 13.5516C10.8359 13.7091 10.7252 13.8961 10.6575 14.1L10.3575 15H9.165L8.865 14.1C8.79787 13.893 8.68652 13.7032 8.53868 13.5435C8.39083 13.3839 8.21003 13.2584 8.00882 13.1756C7.8076 13.0928 7.59079 13.0548 7.37342 13.0642C7.15605 13.0736 6.94333 13.1302 6.75 13.23L5.895 13.6575L5.07 12.8325L5.52 12C5.61982 11.8067 5.67639 11.594 5.68579 11.3766C5.69518 11.1592 5.65718 10.9424 5.57441 10.7412C5.49164 10.54 5.36609 10.3592 5.20646 10.2113C5.04684 10.0635 4.85696 9.95213 4.65 9.885L3.75 9.585V8.415L4.65 8.115C4.85696 8.04787 5.04684 7.93652 5.20646 7.78868C5.36609 7.64083 5.49164 7.46003 5.57441 7.25882C5.65718 7.0576 5.69518 6.84079 5.68579 6.62342C5.67639 6.40605 5.61982 6.19333 5.52 6L5.0925 5.1675L5.9175 4.3425L6.75 4.77C6.94333 4.86982 7.15605 4.92639 7.37342 4.93579C7.59079 4.94518 7.8076 4.90718 8.00882 4.82441C8.21003 4.74164 8.39083 4.61609 8.53868 4.45646C8.68652 4.29684 8.79787 4.10696 8.865 3.9L9.165 3H10.335L10.635 3.9C10.7021 4.10696 10.8135 4.29684 10.9613 4.45646C11.1092 4.61609 11.29 4.74164 11.4912 4.82441C11.6924 4.90718 11.9092 4.94518 12.1266 4.93579C12.344 4.92639 12.5567 4.86982 12.75 4.77L13.605 4.3425L14.43 5.1675L13.98 6C13.8842 6.19234 13.8308 6.40301 13.8235 6.61777C13.8162 6.83253 13.8551 7.04635 13.9375 7.24476C14.02 7.44318 14.1442 7.62155 14.3016 7.76781C14.4591 7.91407 14.6461 8.0248 14.85 8.0925L15.75 8.3925V9.585ZM9.75 6C9.15666 6 8.57664 6.17595 8.08329 6.50559C7.58994 6.83524 7.20543 7.30377 6.97836 7.85195C6.7513 8.40013 6.69189 9.00333 6.80765 9.58527C6.9234 10.1672 7.20912 10.7018 7.62868 11.1213C8.04824 11.5409 8.58279 11.8266 9.16473 11.9424C9.74667 12.0581 10.3499 11.9987 10.8981 11.7716C11.4462 11.5446 11.9148 11.1601 12.2444 10.6667C12.5741 10.1734 12.75 9.59335 12.75 9C12.75 8.20435 12.4339 7.44129 11.8713 6.87868C11.3087 6.31607 10.5457 6 9.75 6ZM9.75 10.5C9.45333 10.5 9.16332 10.412 8.91665 10.2472C8.66997 10.0824 8.47771 9.84812 8.36418 9.57403C8.25065 9.29994 8.22095 8.99834 8.27882 8.70737C8.3367 8.4164 8.47956 8.14912 8.68934 7.93934C8.89912 7.72956 9.1664 7.5867 9.45737 7.52882C9.74834 7.47095 10.0499 7.50065 10.324 7.61418C10.5981 7.72771 10.8324 7.91997 10.9972 8.16665C11.162 8.41332 11.25 8.70333 11.25 9C11.25 9.39783 11.092 9.77936 10.8107 10.0607C10.5294 10.342 10.1478 10.5 9.75 10.5Z" fill="#3A3C3F"/>
</svg>
