<svg width="19" height="18" viewBox="0 0 19 18" fill="none" xmlns="http://www.w3.org/2000/svg">
<path d="M5.25 9.75H2.25C2.05109 9.75 1.86032 9.82902 1.71967 9.96967C1.57902 10.1103 1.5 10.3011 1.5 10.5V16.5C1.5 16.6989 1.57902 16.8897 1.71967 17.0303C1.86032 17.171 2.05109 17.25 2.25 17.25H5.25C5.44891 17.25 5.63968 17.171 5.78033 17.0303C5.92098 16.8897 6 16.6989 6 16.5V10.5C6 10.3011 5.92098 10.1103 5.78033 9.96967C5.63968 9.82902 5.44891 9.75 5.25 9.75ZM4.5 15.75H3V11.25H4.5V15.75ZM17.25 6.75H14.25C14.0511 6.75 13.8603 6.82902 13.7197 6.96967C13.579 7.11032 13.5 7.30109 13.5 7.5V16.5C13.5 16.6989 13.579 16.8897 13.7197 17.0303C13.8603 17.171 14.0511 17.25 14.25 17.25H17.25C17.4489 17.25 17.6397 17.171 17.7803 17.0303C17.921 16.8897 18 16.6989 18 16.5V7.5C18 7.30109 17.921 7.11032 17.7803 6.96967C17.6397 6.82902 17.4489 6.75 17.25 6.75ZM16.5 15.75H15V8.25H16.5V15.75ZM11.25 0.75H8.25C8.05109 0.75 7.86032 0.829018 7.71967 0.96967C7.57902 1.11032 7.5 1.30109 7.5 1.5V16.5C7.5 16.6989 7.57902 16.8897 7.71967 17.0303C7.86032 17.171 8.05109 17.25 8.25 17.25H11.25C11.4489 17.25 11.6397 17.171 11.7803 17.0303C11.921 16.8897 12 16.6989 12 16.5V1.5C12 1.30109 11.921 1.11032 11.7803 0.96967C11.6397 0.829018 11.4489 0.75 11.25 0.75ZM10.5 15.75H9V2.25H10.5V15.75Z" fill="#3A3C3F"/>
</svg>
